<svg id="Layer_1" data-name="Layer 1" xmlns="http://www.w3.org/2000/svg" viewBox="0 0 843.18 753"><defs><style>.cls-1{fill:#ce0c26;}.cls-2{fill:#f4f4f4;}.cls-3{fill:#161516;}.cls-4{fill:#3f3f3f;}.cls-5{fill:#f5f5f5;}.cls-6{fill:#fefefe;}.cls-7{fill:#171516;}.cls-8{fill:#181516;}.cls-9{fill:#1a1516;}.cls-10{fill:#4f121b;}.cls-11{fill:#231417;}.cls-12{fill:#1e1417;}.cls-13{fill:#1d1517;}.cls-14{fill:#f7dade;}.cls-15{fill:#54121b;}.cls-16{fill:#51121b;}.cls-17{fill:#f1bcc3;}.cls-18{fill:#d52a41;}.cls-19{fill:#f4cbd1;}.cls-20{fill:#f5cdd2;}.cls-21{fill:#f2c0c6;}.cls-22{fill:#f3c4cb;}.cls-23{fill:#f3c3ca;}.cls-24{fill:#f3c2c8;}.cls-25{fill:#f3c8ce;}.cls-26{fill:#eb9ea9;}.cls-27{fill:#f0b9c0;}.cls-28{fill:#f6d2d7;}.cls-29{fill:#f1bbc2;}.cls-30{fill:#f3c5cb;}.cls-31{fill:#f2c1c7;}.cls-32{fill:#f0b8bf;}.cls-33{fill:#f4cdd3;}.cls-34{fill:#f2bfc6;}.cls-35{fill:#f4ccd2;}.cls-36{fill:#f8dfe3;}.cls-37{fill:#f8e0e3;}.cls-38{fill:#f6d8dc;}.cls-39{fill:#f5d3d8;}.cls-40{fill:#f1b9c0;}.cls-41{fill:#50121b;}.cls-42{fill:#f8e1e4;}.cls-43{fill:#fbf1f2;}.cls-44{fill:#d52c42;}.cls-45{fill:#f2bec4;}.cls-46{fill:#f5d1d6;}.cls-47{fill:#f8dee2;}.cls-48{fill:#f5d1d5;}.cls-49{fill:#efb2ba;}.cls-50{fill:#f2bec6;}.cls-51{fill:#fae6e9;}.cls-52{fill:#f1bec4;}.cls-53{fill:#f3c7cd;}.cls-54{fill:#f7d9dd;}.cls-55{fill:#fae8ea;}.cls-56{fill:#52121b;}.cls-57{fill:#efafb7;}.cls-58{fill:#f9e2e4;}.cls-59{fill:#f2c2c9;}.cls-60{fill:#f3c6cc;}.cls-61{fill:#fae7ea;}.cls-62{fill:#fdf8f9;}.cls-63{fill:#fbf0f1;}.cls-64{fill:#fbeff1;}.cls-65{fill:#f8dfe2;}.cls-66{fill:#fcf8f8;}.cls-67{fill:#e37685;}.cls-68{fill:#fcf4f5;}.cls-69{fill:#f1bec5;}.cls-70{fill:#eda7b0;}.cls-71{fill:#73101e;}.cls-72{fill:#f4cad0;}.cls-73{fill:#eda6af;}.cls-74{fill:#f6d4d9;}.cls-75{fill:#f2c1c8;}.cls-76{fill:#f9e2e5;}.cls-77{fill:#301318;}.cls-78{fill:#f4cbd0;}.cls-79{fill:#f6d4d8;}.cls-80{fill:#fcf1f3;}.cls-81{fill:#8f0f20;}.cls-82{fill:#f7dadd;}.cls-83{fill:#f6d6da;}.cls-84{fill:#414141;}.cls-85{fill:#404040;}.cls-86{fill:#424242;}.cls-87{fill:#434343;}.cls-88{fill:#6b6b6b;}.cls-89{fill:#686868;}.cls-90{fill:#5b5b5b;}.cls-91{fill:#6a6a6a;}.cls-92{fill:#626262;}.cls-93{fill:#4e4e4e;}.cls-94{fill:#d6d6d6;}.cls-95{fill:#535353;}.cls-96{fill:#4d4d4d;}.cls-97{fill:#d2d2d2;}.cls-98{fill:#595959;}.cls-99{fill:#525252;}.cls-100{fill:#737373;}.cls-101{fill:#777;}.cls-102{fill:#5e5e5e;}.cls-103{fill:#5d5d5d;}.cls-104{fill:#565656;}.cls-105{fill:#e2e2e2;}.cls-106{fill:#ededed;}.cls-107{fill:#656565;}.cls-108{fill:#757575;}.cls-109{fill:#575757;}.cls-110{fill:#5a5a5a;}.cls-111{fill:#d5d5d5;}.cls-112{fill:#787878;}.cls-113{fill:#676767;}.cls-114{fill:#6e6e6e;}.cls-115{fill:#eee;}.cls-116{fill:#4a4a4a;}.cls-117{fill:#7a7a7a;}.cls-118{fill:#cdcdcd;}.cls-119{fill:#f2f2f2;}.cls-120{fill:#4b4b4b;}.cls-121{fill:#4c4c4c;}.cls-122{fill:#797979;}.cls-123{fill:#747474;}.cls-124{fill:#5f5f5f;}.cls-125{fill:#484848;}.cls-126{fill:#939393;}.cls-127{fill:#8e8e8e;}.cls-128{fill:#767676;}.cls-129{fill:#8f8f8f;}.cls-130{fill:#606060;}.cls-131{fill:#919191;}.cls-132{fill:#dcdcdc;}.cls-133{fill:#a9a9a9;}.cls-134{fill:#c2c2c2;}.cls-135{fill:#cf0d27;}.cls-136{fill:#d00e27;}.cls-137{fill:#d0112a;}.cls-138{fill:#45131a;}.cls-139{fill:#c50c25;}.cls-140{fill:#bc0d24;}.cls-141{fill:#b20d23;}.cls-142{fill:#c80c25;}.cls-143{fill:#b10d23;}.cls-144{fill:#d1142d;}.cls-145{fill:#b50d23;}.cls-146{fill:#d21b33;}.cls-147{fill:#d0122b;}.cls-148{fill:#d01029;}.cls-149{fill:#d1142e;}.cls-150{fill:#d73248;}.cls-151{fill:#d21831;}.cls-152{fill:#d1152e;}.cls-153{fill:#d8384d;}.cls-154{fill:#f3f3f3;}.cls-155{fill:#cacaca;}.cls-156{fill:#d7d7d7;}.cls-157{fill:#d3d3d3;}.cls-158{fill:#f1f1f1;}.cls-159{fill:#9f9f9f;}.cls-160{fill:#bcbcbc;}.cls-161{fill:#cbcbcb;}.cls-162{fill:#c9c9c9;}.cls-163{fill:#cd0c26;}.cls-164{fill:#474747;}.cls-165{fill:#381319;}.cls-166{fill:#585858;}</style></defs><path class="cls-1" d="M696.65,343.92c.91,0,1.83.08,2.74.08h98c8.25,0,13.15,4.9,13.14,13.18q0,22.33-.07,44.68c-1.2,1.28-2.79.89-4.24.89q-35.58,0-71.17,0H719.6a7,7,0,0,0-4.29,1.07c-6.9,4.93-13.77,9.9-20.84,15a5.81,5.81,0,0,0,3.06.36q54.18,0,108.37,0c1.54,0,3.19-.38,4.58.7,0,.66.08,1.33.08,2q0,113.32,0,226.64c0,.59,0,1.17-.07,1.75a2.88,2.88,0,0,1-2.47.92c-.92,0-1.83,0-2.75,0H358.18a17.74,17.74,0,0,1-4-.17q-2.42-.55-.85-2.47a12.56,12.56,0,0,1,2.71-2.2c7.81-5.53,15.54-11.19,23.33-16.76.57-.41,1.35-.66,1.52-1.53-.74-.6-1.6-.35-2.39-.35-16.57,0-33.14,0-49.71,0a10.51,10.51,0,0,0-6.47,2.13q-29.26,21.12-58.58,42.2c-5.39,3.88-10.8,7.75-16.42,11.81a6.24,6.24,0,0,0,2.85.29q277.36,0,554.74,0c1.86,0,3.85-.53,5.56.77v16.46a3.36,3.36,0,0,1-2.54.82c-1.25,0-2.49,0-3.74,0q-205.83,0-411.64-.07a15.06,15.06,0,0,0-9.88,3.22c-4.59,3.59-9.44,6.84-14.16,10.26a15.44,15.44,0,0,1-4.16,2.22c-.75,0-1.49.09-2.24.09h-203c-6.7,0-11.28-3.34-12.76-9.28a8.76,8.76,0,0,1-.29-2q0-23.24.06-46.46c1.37-.89,2.91-.58,4.38-.58q42,0,83.91,0a12.78,12.78,0,0,0,8.28-2.74c5.61-4.32,11.51-8.24,17.21-12.43a5.6,5.6,0,0,0,1.7-1.47,5.37,5.37,0,0,0-3-.33q-54.06,0-108.13,0c-1.47,0-3,.33-4.35-.65,0-1-.08-2-.08-3q0-103.55,0-207.1c0-1-.05-2-.08-3-.09-.14-.25-.26-.27-.41a54.29,54.29,0,0,1,.14-16.59,3.66,3.66,0,0,1,2.57-.77c1-.05,2,0,3,0H598a19.17,19.17,0,0,1,4.48.21c1.25.3,1.49.94.58,1.9a20.55,20.55,0,0,1-2.94,2.32q-11.65,8.4-23.31,16.8a6.85,6.85,0,0,0-1.66,1.45,3.84,3.84,0,0,0,2.15.31q25.22,0,50.45,0a9.43,9.43,0,0,0,5.83-1.79q37.14-26.88,74.35-53.66a1.92,1.92,0,0,0,.73-.76,4.59,4.59,0,0,0-2.4-.21q-277.65,0-555.29,0c-1.72,0-3.52.4-5.1-.69a3.45,3.45,0,0,1-.61-2.11q-.12-6.21,0-12.41a3.57,3.57,0,0,1,.59-2.12,3.92,3.92,0,0,1,2.59-.72c1.25-.05,2.5,0,3.75,0q205.59,0,411.18.05a15.85,15.85,0,0,0,10.38-3.28c4.73-3.67,9.65-7.11,14.55-10.57a26.33,26.33,0,0,1,3.83-2.34c5-.73,10.08-.23,15.12-.32q21.71-.12,43.41,0c14-.07,27.93,0,41.9,0C694,343.2,695.42,343,696.65,343.92Z"/><path class="cls-2" d="M146.12,411.85Q146,420.43,146,429c-33.94,0-67.89-.12-101.84.11-5.6,0-12.1-6.19-12.08-12.1.16-41.29.09-82.59.09-123.88,0-.91,0-1.83.05-2.74.66-3.31,2.28-6.25,3.71-9.23a406.4,406.4,0,0,1,42.31-70.3q13.07-17.21,27.8-33A383.22,383.22,0,0,1,152.19,136a406.46,406.46,0,0,1,52.75-34.67,464,464,0,0,1,46.57-22.38,419.25,419.25,0,0,1,54.12-18.35c5.72-1.51,11.43-3,17.21-4.27,2.17-.47,4.33-1.07,6.59-.75a13.48,13.48,0,0,1,3.42-.52q175.29,0,350.59-.05a13.07,13.07,0,0,1,13.3,13.17c-.2,41.64-.1,83.28-.11,124.92-2.93,8.35-7,16.18-11.11,24a402.75,402.75,0,0,1-24.42,41,409.57,409.57,0,0,1-31.29,40.14c-7.47,8.42-15.3,16.47-23.42,24.23-7.69,7.36-15.8,14.28-24,21a5.74,5.74,0,0,1-2.69,1.27,38.19,38.19,0,0,1-5.24.16H161.91c-1.33,0-2.67,0-4,0a11.59,11.59,0,0,0-11,11.13c-.08,1.56.25,3.19-.75,4.6V377a5,5,0,0,1,.72,3.34q0,14.09,0,28.19C146.83,409.67,147,410.87,146.12,411.85Z"/><path class="cls-3" d="M810.48,685H245.07c1.36-1.8,3.09-2.64,4.57-3.71Q286.08,655,322.55,628.7a8.11,8.11,0,0,1,5.06-1.63c17.66.06,35.31,0,53,0,.87,0,1.82-.31,2.91.54l-30.71,22.13c1.2.86,2.3.52,3.3.52q85.82,0,171.62,0H807l3.5,0Q810.49,667.64,810.48,685Z"/><path class="cls-4" d="M137.28,55.12c.91,0,1.83-.08,2.74-.08q70.33,0,140.67,0c.91,0,2-.5,2.75.47-.74,1.1-2,1.15-3.09,1.4a318.14,318.14,0,0,0-59.41,19.61A369.14,369.14,0,0,0,154.18,115a389.19,389.19,0,0,0-33.54,26.78c-9.71,8.73-19.15,17.73-28.1,27.28-9.17,9.79-18.11,19.75-26.46,30.23-8.51,10.67-16.68,21.61-24.17,33-2.65,4-5.29,8.07-7.83,12.19-.44.72-.72,1.78-2,1.53q0-30.24,0-60.5c1.26-3.3,4.1-5.4,6.39-7.81,5.56-5.84,10.89-11.9,16.76-17.43,9.44-8.88,18.88-17.74,28.63-26.29,14.63-12.83,29.92-24.83,45.24-36.8a25.88,25.88,0,0,0,3.13-1.94,11.35,11.35,0,0,1,2.21-1.41,16,16,0,0,1,3-2c1.46-1.39,3.26-2.32,4.84-3.55.42-.18.72-.59.62-.58a1.78,1.78,0,0,1-.76.63c-1.44,1.22-3.23,2-4.55,3.37a14.63,14.63,0,0,0-3,2,20.65,20.65,0,0,0-2.56,1.6c-1.09.89-2.37,1.47-3.52,2.27A336.36,336.36,0,0,1,92.28,117a419.16,419.16,0,0,1-45.91,18.11c-3.87,1.27-7.8,2.32-11.67,3.62a2.4,2.4,0,0,1-2.59-.22V108c.51-1,1.55-1.17,2.51-1.42,20.93-5.34,40.52-14,59.44-24.26a342,342,0,0,0,40.14-25.63A9.32,9.32,0,0,1,137.28,55.12Z"/><path class="cls-3" d="M364.36,717.9q11-8,21.95-16c.9-.66,1.92-.45,2.89-.45H810.48c.06,2.49.33,5-.29,7.45A11.87,11.87,0,0,1,798.82,718H367.35C366.35,718,365.36,717.93,364.36,717.9Z"/><path class="cls-5" d="M32.12,246c1.62-1.26,2.25-3.21,3.29-4.85a469.43,469.43,0,0,1,68.47-84.59c27.34-26.85,57.58-49.83,91.32-68.07A329,329,0,0,1,281.51,56c.64-.14,1.29-.32,1.93-.48a7.75,7.75,0,0,1,1.89-.49q17.13,0,34.25.08c-.54,1.36-1.89,1.23-2.95,1.48-13.79,3.25-27.34,7.28-40.74,11.86a444.49,444.49,0,0,0-61,26.11,408.85,408.85,0,0,0-71.3,46.73c-9.13,7.5-17.84,15.46-26.41,23.61A364.48,364.48,0,0,0,76.7,211,375.76,375.76,0,0,0,44,262.61c-3.28,6.27-6.55,12.54-9.5,19-.52,1.14-.74,2.62-2.29,3Q32.14,265.31,32.12,246Z"/><path class="cls-4" d="M650.8,343.92H607.14c-.12-1,.56-1.53,1.18-2.06,9.47-8.15,18.17-17.11,26.88-26A405.23,405.23,0,0,0,662,285.28c9.24-11.58,18-23.48,26.16-35.88,2.24-3.41,4.28-6.93,6.54-10.33.47-.71.69-1.8,1.95-1.55q0,30.45,0,60.9c-2,3.65-5.12,6.3-7.88,9.27C679.12,318,669,328,658.62,337.49,656.15,339.75,654.1,342.63,650.8,343.92Z"/><path class="cls-5" d="M696.65,237.52c-2,1.83-3,4.32-4.37,6.52a469.38,469.38,0,0,1-74.92,90.4c-3.38,3.19-6.81,6.32-10.22,9.48l-15.1.17a12.23,12.23,0,0,1-6.7.4c-1.65-1.16-.21-1.82.49-2.41,3.29-2.81,6.6-5.59,9.85-8.45a388.63,388.63,0,0,0,29.72-28.82A393.65,393.65,0,0,0,652.64,272a383.9,383.9,0,0,0,29.18-45.58c4.44-8.2,8.63-16.52,12.69-24.91.48-1,.7-2.28,2-2.64Z"/><path class="cls-4" d="M32.11,93.05q0-12.73,0-25.47c0-7.42,5.1-12.53,12.54-12.53q36.93,0,73.86,0c.29,1.29-.77,1.73-1.53,2.29A202.79,202.79,0,0,1,65.88,84.59,218,218,0,0,1,35.2,93.32C34.14,93.54,33.08,93.88,32.11,93.05Z"/><path class="cls-3" d="M146.12,642.08h118c-2.54,2.67-5.33,4.14-7.8,6-5.05,3.8-10.26,7.39-15.4,11.07a5.26,5.26,0,0,1-3.18,1.2q-45.83-.08-91.65-.07Z"/><path class="cls-3" d="M810.48,419.93H692.61c-.22-1,.6-1.14,1.07-1.48,6.94-5,13.92-10,20.84-15.06a7.67,7.67,0,0,1,4.82-1.54q45.57.06,91.15,0Q810.49,410.9,810.48,419.93Z"/><path class="cls-5" d="M129.53,97.5C116,108.34,102.22,119,89,130.29A615.57,615.57,0,0,0,32.11,185.5v-47A87.37,87.37,0,0,0,44.52,135a402.26,402.26,0,0,0,80.81-36.14c1.06-.62,2.14-1.22,3.21-1.83C129.11,96.69,129.52,96.68,129.53,97.5Z"/><path class="cls-5" d="M32.11,93.05a116.7,116.7,0,0,0,18.67-4.2A206.08,206.08,0,0,0,116,57.29c.91-.67,2-1.11,2.55-2.24l18.76.07a281.93,281.93,0,0,1-23.94,16.67,309.28,309.28,0,0,1-60.93,30.14c-6.66,2.39-13.48,4.24-20.29,6.11Z"/><path class="cls-5" d="M650.8,343.92c12-11,23.9-22.16,35.07-34.05q5.39-5.72,10.74-11.45l0,45.5Z"/><path class="cls-4" d="M32.17,284.63c4.39-8.68,8.53-17.47,13.19-26a393.86,393.86,0,0,1,59.06-81.73,406.09,406.09,0,0,1,103-79,450.42,450.42,0,0,1,87-36c8.35-2.47,16.83-4.53,25.25-6.78,3.28.11,6.6-.65,9.85.41A429.43,429.43,0,0,0,261.56,75.6c-37.71,14.55-72.95,33.59-105.24,58A390.65,390.65,0,0,0,49.14,256.81c-5.62,10.12-10.78,20.47-15.6,31a6.48,6.48,0,0,1-1.37,2.59Z"/><path class="cls-4" d="M696.56,198.86c-3.61,7.2-7.1,14.46-10.85,21.59A390.47,390.47,0,0,1,599.92,330.7c-5,4.48-10.09,8.85-15.14,13.27a3.08,3.08,0,0,1-4.11,0,412.94,412.94,0,0,0,48.82-46.35,395.36,395.36,0,0,0,48.46-68c6.32-11.25,12.25-22.7,17.44-34.52.31-.72.4-1.63,1.24-2.05Z"/><path class="cls-3" d="M146.12,411.85V377H710.76l.19.49c-2.22,1.64-4.43,3.32-6.67,4.94q-34.81,25.11-69.62,50.26a11.29,11.29,0,0,1-7.11,2.27c-17.32-.11-34.64-.05-52-.07-.86,0-1.79.31-2.87-.48C583,427,593.14,419.69,604,411.88H149.62C148.45,411.88,147.29,411.86,146.12,411.85Z"/><path class="cls-3" d="M580.67,344h4.11l7.26.12q-10.9,7.91-21.81,15.81c-1.14.84-2.36.66-3.58.66H146.12c-.21-4.17-.45-8.33,2.43-11.9a12,12,0,0,1,9-4.66c.92-.06,1.83,0,2.75,0H577.17C578.34,344,579.5,344,580.67,344Z"/><path class="cls-6" d="M464.87,492c-1.51,8.61-3.05,17.21-4.5,25.83-.22,1.3-.59,1.83-2,1.88-5.15.18-5.1.22-6-4.92-1.5-8.42-3.07-16.83-4.61-25.23l-.84,0c0,5.76,0,11.53,0,17.29,0,3.58-.21,7.16-.16,10.74,0,1.69-.57,2.15-2.17,2.08-6.8-.28-5.63,1.37-5.52-5.78.2-13.25.52-26.49.64-39.74,0-2.25.67-2.9,2.83-2.7a31.73,31.73,0,0,0,6.24,0c2.09-.23,2.66.73,3,2.55,1.32,7.45,2.76,14.89,4.16,22.33a4.06,4.06,0,0,0,.85,1.94q1.77-8.6,3.55-17.17c.52-2.53,1.09-5,1.52-7.59.25-1.45.75-2.17,2.41-2.05a56.21,56.21,0,0,0,7,0c1.66-.1,2.1.51,2.12,2.12.1,10.83.31,21.66.48,32.49.06,3.92.08,7.83.23,11.75,0,1.43-.43,1.82-1.83,1.86-5.72.17-5.69.21-5.83-5.48-.19-7.24-.43-14.49-.65-21.73a3.41,3.41,0,0,1-.16-2.75C465.17,490.75,465.45,491.53,464.87,492Z"/><path class="cls-6" d="M344.06,495.61c0-7.33,0-14.66,0-22,0-1.61.41-2.19,2.1-2.11,5.39.24,10.8-.3,16.19.42,7.51,1,10.94,4.71,10.95,12.28,0,4.64-.25,9.25-5,12-1.2.7-.48,1.83-.23,2.71,1.73,6.16,3.45,12.32,5.33,18.44.58,1.9.25,2.52-1.79,2.37a45.21,45.21,0,0,0-6.48,0c-1.69.12-2.31-.59-2.67-2.14-1.34-5.74-2.83-11.46-4.19-17.2-.33-1.4-.85-2.17-2.46-2s-1,1.51-1,2.3q-.12,8.49,0,17c0,1.51-.44,2.08-2,2a63,63,0,0,0-6.73,0c-1.72.11-2.09-.57-2.07-2.16C344.1,510.26,344.06,502.93,344.06,495.61Z"/><path class="cls-6" d="M556.28,495.51c0-7.24,0-14.48,0-21.72,0-1.67.33-2.37,2.17-2.28,4.73.24,9.48-.31,14.2.33,8.36,1.12,11.44,3.93,11.86,12.28a160.86,160.86,0,0,1-.22,24.93c-.61,5.73-3.55,8.87-9.15,10-5.84,1.2-11.77.43-17.66.61-1.5,0-1.15-1.12-1.15-2C556.27,510.32,556.28,502.92,556.28,495.51Z"/><path class="cls-6" d="M532.54,496.23c-.83.56-.47,1.19-.47,1.71,0,6.49-.06,13,0,19.48,0,1.65-.34,2.48-2.19,2.31-2.22-.22-5.09.89-6.52-.43s-.46-4.25-.47-6.47c0-13,0-26-.07-39,0-1.85.45-2.41,2.35-2.38,5.12.09,5.11,0,7.11,4.65,2.5,5.85,5,11.69,8,17.45,0-6.27.11-12.55-.06-18.81-.06-2.48.43-3.43,3.17-3.31,5.7.24,5.7.07,5.7,5.77,0,13.23,0,26.46.05,39.7,0,2.12-.41,2.93-2.71,2.8-5.55-.3-4.11.93-6.24-4.36C537.59,509,535.09,502.66,532.54,496.23Z"/><path class="cls-6" d="M626.4,493.23V489.4c0-5.25.05-10.49,0-15.74,0-1.56.36-2.15,2.08-2.16,6.74,0,6.74-.1,6.74,6.69,0,13-.05,26,0,39,0,2.14-.64,2.64-2.66,2.58-4.56-.13-4.57,0-6.28-4.33-2.2-5.57-4.38-11.15-6.61-16.7a4.87,4.87,0,0,0-1.5-2.6v17.59c0,6,0,5.86-5.91,6.06-2.58.08-3.28-.61-3.25-3.24.14-14.07.1-28.14,0-42.22,0-2,.27-2.93,2.65-2.83,4.77.22,4.77.06,6.69,4.54q3.29,7.69,6.58,15.37c.28.65.59,1.28.89,1.93Z"/><path class="cls-6" d="M662.57,516.18c-3.35,4.58-7.89,4.5-12.59,3.18s-6.61-5-7.57-9.37a31,31,0,0,1-.67-6.93c0-5.41-.12-10.83,0-16.24.36-11.95,5.94-17.45,19.46-15.05,5.87,1.05,8.66,5.18,9.1,12.31.24,3.86.24,3.86-3.53,3.86-1.74,0-3.49-.06-5.24,0-1.27.06-1.81-.37-1.77-1.7a39.33,39.33,0,0,0-.13-4.73,2.88,2.88,0,0,0-3.09-2.93c-1.74,0-3.14.51-3.49,2.46a17.25,17.25,0,0,0-.37,2.95q0,11.24,0,22.48c0,4.06,1.21,5.84,3.84,5.89s4.11-1.85,4.23-5.89c0-.83-.07-1.67,0-2.49.24-2.21-.08-3.82-2.93-3.25-.91.18-1.27-.3-1.38-1.26-.59-4.84-.4-5.09,4.53-5.09,2.5,0,5,.05,7.49,0,1.3,0,2,.22,2,1.75,0,7.32,0,14.65,0,22,0,1.16-.4,1.72-1.59,1.62-.42,0-.84,0-1.25,0C663.76,519.71,663.76,519.71,662.57,516.18Z"/><path class="cls-6" d="M419.29,471.55c6,0,6,0,7.08,5.91,2.45,13.24,4.9,26.47,7.47,39.68.42,2.15,0,2.92-2.19,2.57a4.68,4.68,0,0,0-.75,0c-6.62,0-6.61,0-7.53-6.46-.18-1.26.11-3.19-1.14-3.52a17.86,17.86,0,0,0-5.93-.05c-.87.08-.76,1.19-.88,1.88-.39,2.13-.8,4.26-1,6.4-.15,1.4-.76,1.83-2.09,1.77a59.64,59.64,0,0,0-6,0c-1.81.12-2.29-.43-1.93-2.25,1.61-8.06,3.1-16.15,4.63-24.24,1.19-6.28,2.48-12.55,3.52-18.86.37-2.24,1.18-3.22,3.49-2.86A20.6,20.6,0,0,0,419.29,471.55Z"/><path class="cls-6" d="M299.32,520.05c-8.33-.08-13.08-4.83-13.38-13.25-.05-1.42.41-2,1.73-2,.41,0,.82-.15,1.23-.2,1.81-.22,3.85-1,5.39-.48s.47,3.14,1.3,4.64a14.59,14.59,0,0,0,1.18,2.17,3,3,0,0,0,3.39.93,2.58,2.58,0,0,0,1.69-2.53,8.75,8.75,0,0,0-2.14-6.7c-2.4-2.79-5.39-4.93-8.11-7.38-4.48-4-6.61-8.88-5.28-15a10.53,10.53,0,0,1,7.07-8.06,17.76,17.76,0,0,1,10.08-.54c4.46,1,6.21,4.4,7.26,8.35,1.31,4.91,1.29,4.92-3.68,5.65-.41.07-.81.17-1.22.22-3.47.41-3.46.4-3.82-3a14.25,14.25,0,0,0-.21-1.48c-.34-1.41-1-2.49-2.68-2.43a2.72,2.72,0,0,0-2.68,2.51,6.82,6.82,0,0,0,1.92,6.43c2,2,4.15,3.84,6.27,5.71,3.41,3,6.44,6.27,7.4,11C313.85,513.48,308.4,520.13,299.32,520.05Z"/><path class="cls-6" d="M496.3,495.65c0-7.24.09-14.48-.05-21.72,0-2.06.63-2.46,2.52-2.42q8.48.17,17,0c1.78,0,2.23.55,2.22,2.26,0,5.18,0,5.18-5.22,5.18-5.81,0-5.81,0-5.82,5.81s0,5.94,6,5.87c2,0,2.54.54,2.5,2.52-.11,4.87,0,4.87-4.8,4.87-.74,0-1.5.05-2.24,0-1.09-.08-1.46.4-1.45,1.46,0,3.75.06,7.49,0,11.23,0,1.35.52,1.72,1.78,1.69,2.49-.07,5,.07,7.48,0,1.57-.08,1.94.5,2,2,.06,5.37.11,5.36-5.31,5.36-4.83,0-9.65-.07-14.47,0-1.69,0-2.07-.53-2.05-2.12C496.34,510.3,496.3,503,496.3,495.65Z"/><path class="cls-6" d="M379.82,495.71c0-7.32.05-14.64,0-22,0-1.74.46-2.26,2.22-2.23,5.82.11,11.64.08,17.46,0,1.52,0,2,.44,2,2,.09,5.46.15,5.45-5.22,5.45-5.84,0-5.84,0-5.84,6,0,5.73,0,5.85,5.59,5.69,2.34-.07,3,.64,2.88,2.92-.17,4.48-.05,4.48-4.46,4.48-4,0-4,0-4,4.08,0,2.83.07,5.66,0,8.49-.06,1.45.46,1.87,1.85,1.82,2.58-.1,5.16,0,7.74,0,.62,0,1.46-.2,1.48.81.05,1.92,0,3.83,0,5.74,0,.86-.74.75-1.3.75-6.32,0-12.64,0-19,0-1.65,0-1.36-1.08-1.36-2Q379.81,506.7,379.82,495.71Z"/><path class="cls-6" d="M321.94,499.52c0-6,0-12,0-18,0-1.47-.18-2.21-2-2.22-5.36,0-5.29-.1-5.31-5.55,0-1.72.45-2.28,2.22-2.25,7,.1,14,.08,21,0,1.54,0,2.17.45,1.94,2a2.08,2.08,0,0,0,0,.25c.07,5.45.07,5.56-5.25,5.56-2,0-1.87,1-1.87,2.3,0,11.83,0,23.65.06,35.47,0,2-.49,2.86-2.62,2.67a46.41,46.41,0,0,0-6.24,0c-1.53.08-2-.45-2-2C322,511.67,321.94,505.59,321.94,499.52Z"/><path class="cls-6" d="M591.22,495.74c0-7.34.06-14.67,0-22,0-1.73.43-2.35,2.21-2.23a50.19,50.19,0,0,0,6.49,0c1.58-.09,2,.53,2,2q-.08,22.11,0,44.24c0,1.53-.45,2-2,2a63.14,63.14,0,0,0-6.74,0c-1.58.08-1.93-.53-1.92-2C591.26,510.4,591.22,503.07,591.22,495.74Z"/><path class="cls-7" d="M499.71,545.42c.17-1.65.42-3.3.47-5,.05-1.47.9-1.51,2-1.48,1.36,0,1.1,1,1,1.76-.47,4.12-.94,8.25-1.49,12.37-.15,1.14,0,2.53-2,2.47s-1.68-1.46-1.87-2.61c-.25-1.47-.41-3-.61-4.44a1.41,1.41,0,0,1-.36-.62s-.15,0-.15,0a.86.86,0,0,1,0,.17,4.66,4.66,0,0,1-.37.92c-.2,1.64-.44,3.29-.6,4.93-.1,1.09-.54,1.61-1.71,1.64s-1.78-.33-1.93-1.62c-.52-4.52-1.15-9-1.72-13.55-.09-.69-.1-1.42.88-1.39s2-.43,2.14,1c.15,1.06.27,2.13.37,3.2s0,2.31.86,3.36c.24-2.08.49-4,.7-6,.1-.92.34-1.56,1.47-1.57s1.37.58,1.45,1.53c.14,1.65.38,3.29.58,4.93a2.28,2.28,0,0,1,.46,1.14A2,2,0,0,1,499.71,545.42Z"/><path class="cls-7" d="M535.37,547.21c0-2.25.06-4.5,0-6.75-.05-1.54.89-1.48,1.95-1.49s2,0,1.9,1.53a24.85,24.85,0,0,0,0,3c0,.93-.34,2.14,1.32,2.09,1.46,0,1.16-1.11,1.19-2s0-1.67,0-2.5c-.08-1.29,0-2.2,1.77-2.19s1.87.76,1.86,2.13c-.06,4.16-.08,8.33,0,12.49,0,1.48-.37,2.06-2,2.05s-1.74-.82-1.68-2,0-2.5,0-3.75c0-.9-.29-1.39-1.29-1.38s-1.25.55-1.24,1.42c0,1.16-.06,2.33,0,3.5.1,1.47-.17,2.29-2,2.26s-1.91-.78-1.86-2.15C535.42,551.37,535.37,549.29,535.37,547.21Z"/><path class="cls-7" d="M390.87,547.46c0-2.34.06-4.67,0-7-.06-1.54.88-1.47,1.94-1.5s1.75.21,1.68,1.5,0,2.49,0,3.74c0,.91.32,1.4,1.31,1.38S397,545,397,544.12s.07-2,0-3c-.12-1.53.26-2.24,2-2.21s1.86.78,1.84,2.13c-.06,4.17-.08,8.33,0,12.49,0,1.48-.37,2.05-2,2.05s-2-.61-1.93-2.07c.09-1.16,0-2.33,0-3.49,0-.93-.12-1.64-1.32-1.61s-1.21.86-1.21,1.71c0,1.09,0,2.17,0,3.25.06,1.28,0,2.21-1.77,2.21s-1.9-.78-1.85-2.14C390.92,551.45,390.87,549.45,390.87,547.46Z"/><path class="cls-7" d="M477.56,547.54a21.77,21.77,0,0,0-.33,6.28c0,1.55-.73,1.73-2,1.75s-1.92-.37-1.9-1.83q.12-6.47,0-13c0-1.41.45-1.94,1.86-1.83,1.16.1,2.32,0,3.48,0,1.82.06,3.7.41,4.37,2.26s.86,3.81-.63,5.4a2.29,2.29,0,0,0-.49,2.49c.39,1.36.87,2.69,1.14,4.07.15.73,1.14,1.91-.23,2.22-1.21.26-2.82.72-3.31-1.45C479.08,552,479,549.93,477.56,547.54Z"/><path class="cls-7" d="M471.24,547.17c0,1.34.08,2.67,0,4-.22,3-2,4.65-5.07,4.65a4.45,4.45,0,0,1-4.8-4.64c-.13-2.65-.13-5.33,0-8,.15-3,1.88-4.58,4.79-4.65s4.83,1.58,5.08,4.63C471.33,544.5,471.24,545.84,471.24,547.17Z"/><path class="cls-8" d="M559.82,545.49c0-1.7,0-3.4,0-5.1,0-1.1.48-1.43,1.51-1.43s1.52.28,1.52,1.4c0,4.57,0,9.14,0,13.71,0,.66,0,1.35-.92,1.45a1.6,1.6,0,0,1-1.94-1.09,28.8,28.8,0,0,0-2.83-5.92c0,1.84,0,3.67,0,5.51,0,1.23-.54,1.54-1.66,1.54s-1.65-.35-1.64-1.56c0-4.49,0-9,0-13.46,0-.77,0-1.54,1.09-1.56.86,0,1.61,0,2,1,.75,1.88,1.6,3.73,2.41,5.6Z"/><path class="cls-7" d="M420.39,545.47c0-1.66,0-3.32,0-5,0-1,.29-1.5,1.41-1.52s1.62.38,1.6,1.58c0,4.49,0,9,0,13.48,0,.65.09,1.38-.88,1.49a1.59,1.59,0,0,1-2-1,26.44,26.44,0,0,0-3-6.05c0,1.77,0,3.55,0,5.32,0,1.18-.23,1.87-1.64,1.84s-1.47-.7-1.46-1.75c0-4.41,0-8.83,0-13.24,0-.74-.12-1.58,1-1.59.83,0,1.6-.1,2,1,.72,1.91,1.61,3.76,2.44,5.63Z"/><path class="cls-7" d="M430,544.56c.61-1.44,1.25-2.88,1.82-4.33.26-.65.51-1.26,1.35-1.23s1.71-.2,2.17.19,0,1.4-.37,2c-2.71,4.05-1.61,8,.16,12,.29.66,1.33,1.84,0,2.25s-2.86.75-3.38-1.37c-.41-1.67-1.08-3.28-1.8-5.39-.81,2.06-.47,3.71-.47,5.29,0,1.41-.67,1.62-1.85,1.64s-1.81-.32-1.79-1.68q.09-6.63,0-13.24c0-1.35.51-1.68,1.76-1.71s2,.4,1.87,1.84c-.1,1.22,0,2.45,0,3.68Z"/><path class="cls-7" d="M565.29,547.19a39.43,39.43,0,0,1,0-4.74c.34-2.66,2.63-4.2,5.47-3.87a4.15,4.15,0,0,1,4,4.51c0,.85-.15,1.54-1.2,1.42-.87-.1-2.14.55-2.3-1.09-.08-.88.11-2.09-1.26-2s-1.22,1.37-1.23,2.34c0,2.25,0,4.5,0,6.74,0,1-.08,2.11,1.19,2.46a1.13,1.13,0,0,0,1.42-.74c.34-1,.74-2.36-.16-3s-1.46-1.18-.85-1.88c.84-.94,2.2-.33,3.33-.4.89-.06,1.09.56,1.08,1.31,0,2,0,4,0,6,0,.61-.16,1.48-.83,1.21-1.76-.7-3.34.41-5,.23-2.39-.26-3.5-1.78-3.71-4-.14-1.48,0-3,0-4.49Z"/><path class="cls-7" d="M527.36,547.3c0,1.42,0,2.83,0,4.24,0,.7.26,1.37,1.09,1.44,1,.07,1.38-.67,1.29-1.46-.24-2.16,1.07-2.39,2.59-2,1.73.39,1,1.9.84,2.87-.31,2.29-2.15,3.54-4.72,3.48s-4.42-1.4-4.57-3.73a68.55,68.55,0,0,1,0-9.72c.19-2.66,2.61-4.15,5.49-3.79,2.62.32,4,2.12,4,4.83,0,1.24-.54,1.6-1.66,1.53-.91-.06-1.89.14-1.9-1.29,0-.92.3-2.33-1.24-2.19s-1.15,1.58-1.2,2.6,0,2.16,0,3.24Z"/><path class="cls-7" d="M509.25,539c1.35-.31,2,.29,2.3,1.87.69,4.34,1.55,8.64,2.32,13,.11.63.77,1.64-.56,1.66-.92,0-2.29.71-2.57-1-.05-.33-.15-.65-.21-1-.17-.77-.39-1.43-1.41-1.38s-1.28.53-1.4,1.4c-.15,1.07-.27,2.12-1.85,2.09-1.32,0-2-.14-1.64-1.75.93-4.46,1.77-8.94,2.49-13.44C507,538.74,508,539,509.25,539Z"/><path class="cls-7" d="M412.53,554.34c.11.67.06,1.26-.79,1.17s-2.1.61-2.44-.94a12.6,12.6,0,0,0-.5-1.92c-.27-.69-.94-.55-1.51-.54-.76,0-.87.56-1,1.16s0,1.85-.93,2.14a3.88,3.88,0,0,1-2.43-.06c-.84-.34-.16-1.18-.06-1.76.79-4.41,1.7-8.8,2.44-13.22.21-1.24.83-1.55,1.85-1.37s2.37-.73,2.69.91C410.77,544.71,411.63,549.53,412.53,554.34Z"/><path class="cls-7" d="M441.06,538.55c1.91.09,3.29.69,3.83,2.46.25.8,1.08,1.87-.17,2.32-.82.3-2.35,1.14-2.58-1a.87.87,0,0,0-1.26-.79c-.68.27-.63.92-.57,1.49.13,1.2,1.08,1.83,1.86,2.56,1.4,1.3,2.87,2.55,3.42,4.49a4.19,4.19,0,0,1-3.26,5.48,4.3,4.3,0,0,1-5.46-3.36c-.18-1-.1-1.73,1.17-2,1-.19,1.76-.34,1.87,1.07.07.83.47,1.85,1.53,1.46s.81-1.52.38-2.34c-.87-1.67-2.54-2.6-3.74-4a5.09,5.09,0,0,1-.91-5.57C437.89,539.08,439.63,538.88,441.06,538.55Z"/><path class="cls-9" d="M516.4,548.7V544c0-1.14.27-2.41-1.59-2.4-.91,0-.88-.8-.89-1.48,0-.89.49-1.12,1.26-1.11h6.22c.77,0,1.29.21,1.27,1.11,0,.68,0,1.48-.89,1.47-1.66,0-1.56,1-1.55,2.17,0,3.32-.05,6.63,0,9.95,0,1.36-.37,1.91-1.82,1.91s-2.19-.28-2.07-1.92S516.4,550.35,516.4,548.7Z"/><path class="cls-7" d="M452.76,547c0-2.08.05-4.15,0-6.23,0-1.21.26-1.88,1.64-1.79s2.66,0,4,0c.84,0,1.45.13,1.45,1.19s-.42,1.37-1.34,1.3c-1.29-.09-2.28,0-2.19,1.78.07,1.39.07,2.52,1.94,2.28.88-.11,1.11.49,1.11,1.26s-.27,1.35-1.13,1.25c-1.91-.23-1.95,1-1.89,2.33.05,1.08,0,2.16,0,3.24.09,1.3-.24,2-1.75,2s-1.91-.45-1.85-1.87C452.83,551.47,452.76,549.23,452.76,547Z"/><path class="cls-7" d="M383.3,548.74c0-1.58,0-3.15,0-4.73,0-1.18.17-2.4-1.61-2.45-.95,0-.86-.81-.88-1.48,0-.9.51-1.1,1.28-1.1,2,0,4,0,6,0,.73,0,1.33.09,1.3,1,0,.75.1,1.58-1,1.58-1.47,0-1.45,1-1.44,2,0,3.32,0,6.65,0,10,0,1.29-.23,2-1.75,2s-2-.43-1.87-1.86C383.37,552.07,383.3,550.4,383.3,548.74Z"/><path class="cls-8" d="M551.36,547.26c0,2.16-.07,4.32,0,6.47.06,1.44-.51,1.86-1.89,1.85s-1.75-.43-1.74-1.74q.09-6.6,0-13.2c0-1.34.51-1.67,1.76-1.7s1.93.4,1.87,1.84C551.29,542.93,551.36,545.1,551.36,547.26Z"/><path class="cls-10" d="M350.88,581.61a9.71,9.71,0,0,1,9.66-9.15c4.76.1,9.35,4.75,9.27,9.4-.09,5-4.76,9.62-9.67,9.58S350.79,586.83,350.88,581.61Z"/><path class="cls-11" d="M583,555.51c-.95-.1-.8-.69-.62-1.28,1.44-4.69,2.89-9.37,4.31-14.07.22-.7.51-1.32,1.35-1.13,1.11.26.49,1,.32,1.58-1.34,4.46-2.72,8.9-4.08,13.36C584.1,554.69,584,555.47,583,555.51Z"/><path class="cls-12" d="M596.31,539c.86-.06,1,.43.82,1.1-1.47,4.85-3,9.7-4.43,14.55a1,1,0,0,1-1.32.81c-.77-.17-.49-.69-.35-1.16q2.15-7.16,4.31-14.32C595.48,539.52,595.69,539,596.31,539Z"/><path class="cls-13" d="M368.5,555.48c-.79,0-.72-.67-.55-1.23,1.46-4.85,2.95-9.68,4.43-14.52.22-.74.76-.84,1.37-.67.77.21.38.78.25,1.2q-2.13,7-4.28,14C369.55,554.85,369.38,555.46,368.5,555.48Z"/><path class="cls-12" d="M360.07,555.51c-.88.07-.93-.41-.72-1.09,1.48-4.83,3-9.65,4.42-14.49.24-.81.74-1.15,1.46-.86s.23,1,.1,1.48c-1.35,4.61-2.76,9.2-4.18,13.78C361,554.86,360.84,555.5,360.07,555.51Z"/><path class="cls-14" d="M576.86,580.59a22.59,22.59,0,0,1,0,2.47,2.14,2.14,0,0,1-2.4,2c-1.41,0-2.49-.51-2.66-2s0-2.81-.06-4.21c0-1.77.72-2.86,2.61-2.87s2.62,1.1,2.57,2.87c0,.58,0,1.16,0,1.74Z"/><path class="cls-15" d="M496.17,573.83c3.35-2.55,7.34-1.31,9.88.64a8.75,8.75,0,0,1,3.29,10.11,1.17,1.17,0,0,1-.83-.71,10.57,10.57,0,0,0-.93-5.32c-1.69-3.16-4.22-4.79-7.92-4.45a8.93,8.93,0,0,1-3,.23A.87.87,0,0,1,496.17,573.83Z"/><path class="cls-16" d="M508.85,584l.49.6c-2.58,7.13-9.81,9.06-15.19,4a.83.83,0,0,1,.55-.43,4.21,4.21,0,0,1,2.06.77c4.26,1.93,8.27.7,10.72-3.28C507.87,585.05,508.09,584.3,508.85,584Z"/><path class="cls-17" d="M529.25,578.53c1.21.9,2.35,5.15,1.4,5.93a3.51,3.51,0,0,1-3,.48,1.74,1.74,0,0,1-1.38-1.84c0-1.19.83-1.7,1.89-2,.55-.15,1.57.31,1.53-.75,0-1.24-1.1-1-1.9-1C527.7,578.17,528.93,579.1,529.25,578.53Z"/><path class="cls-18" d="M425.22,584.49l-.84.5c-2.06-1.59-1.42-3.59-.83-5.57a1.67,1.67,0,0,1,2.58-.07C426.59,581.2,427.52,583.13,425.22,584.49Z"/><path class="cls-19" d="M380.28,584.52c-1-1.37-1.42-6.18-.58-7.49a2.59,2.59,0,0,1,3.08-1,1.9,1.9,0,0,1,1.59,2.32c-1,.08-.87-1-1.52-1.21-1.13-.35-2.38-.48-2.45,1-.08,1.92-.66,3.95.46,5.8C380.93,584.48,380.85,584.78,380.28,584.52Z"/><path class="cls-20" d="M593.23,582.85c-.17,1.82-1.12,2.34-2.54,2.19a2,2,0,0,1-1.91-2.45c.07-1.5-.6-3.4,1.47-4.05,1.37-.42,2.66-.1,3,1.93-1.18-.21-2.32-2.23-3.25-.56a3.5,3.5,0,0,0,.21,4C591.33,585.07,592.08,583.33,593.23,582.85Z"/><path class="cls-21" d="M458.34,581.58l.63-.37c.57-.36,1.61.33,1.8-.79a1,1,0,0,0-.38-.82,1.45,1.45,0,0,0-2.1.59c-.07.1-.27.11-.74.28a1.75,1.75,0,0,1,1.58-2c1.06-.2,2.12,0,2.48,1.11a10,10,0,0,1,.08,5.09c-.09.43-.51-.14-.79-.15-.42.28-.62,0-.78-.32a1.53,1.53,0,0,0-1.31-1.83C458.49,582.2,458.23,582,458.34,581.58Z"/><path class="cls-22" d="M566.3,584.51c-1.34,1-2.79.87-3.28-.66s-1.15-4.07.72-5c1.47-.7,2.72-1,3-2.8.08,0,.2,0,.24,0a2,2,0,0,1,.24.37c-.51,1,.37,2.61-1.22,3.25-2.12,1.24-2.2,2.37-.28,4A1.15,1.15,0,0,1,566.3,584.51Z"/><path class="cls-22" d="M435.85,584.51c-2.92,1.18-4.37.39-4.31-2.61,0-1.86-.86-4,1.11-5.51.45-.22.7,0,.86.41,0,1.22-.48,2.36-.55,3.59-.11,1.85.51,3,2.42,3.2C435.73,583.8,436,584.05,435.85,584.51Z"/><path class="cls-23" d="M435.85,584.51l-.56-.55a5.83,5.83,0,0,1-.11-3,3.83,3.83,0,0,0-1.85-4l-.68-.59c2.93-.9,4.23-.12,4.14,2.77C436.73,581,437.64,583,435.85,584.51Z"/><path class="cls-24" d="M420.44,584.52c-1.17.88-2.55,1-3.26-.26a5.07,5.07,0,0,1,0-5c.72-1.27,2.05-1.16,3.23-.33a1.23,1.23,0,0,1-.59.83c-1.89,1.45-1.9,2.62,0,4A1.13,1.13,0,0,1,420.44,584.52Z"/><path class="cls-25" d="M522.76,584.94c-2.43.46-3.51-.75-3.36-3,.13-1.87-.9-4.06,1.19-5.52.6-.25.76,0,.68.57a7.21,7.21,0,0,0,0,7.14C521.69,584.56,522.84,583.66,522.76,584.94Z"/><path class="cls-26" d="M405.42,581.53c-.33.65-1,.52-1.47.46-1.63-.19-2,.59-1.59,2a.41.41,0,0,1,.15.51.33.33,0,0,1-.5,0,3.94,3.94,0,0,1,0-5.47c.42-.1.57.2.72.49.33,1,1.4.83,2.09,1.25C405.05,581,405.16,581.31,405.42,581.53Z"/><path class="cls-27" d="M603.9,584.87v-8.73h.48v8.73Z"/><path class="cls-28" d="M551.51,584c.29-1.65-1.43-3.46.42-5,.47,0,.55.29.63.63.12.57,0,1.61.85,1.33s.14-1.2.09-1.84a.85.85,0,0,1,.24-.61c.68.42,2.11-.31,1.93,1.41-.14,1.34-.36,2.44-2,2.65-.72.1-2.15-.39-1.38,1.33A.54.54,0,0,1,551.51,584Z"/><path class="cls-25" d="M557.68,579c1.17-.84,2.47-.93,3.19.33a4.89,4.89,0,0,1,0,4.93c-.72,1.23-2,1.2-3.19.3a1.13,1.13,0,0,1,.64-.77c1.86-1.37,1.85-2.52,0-4A1.22,1.22,0,0,1,557.68,579Z"/><path class="cls-29" d="M535.65,580.1c-1.75-1.43-2.42-.86-2.52,1.24,0,1.18.53,2.46-.4,3.54a15.14,15.14,0,0,1,.06-6,11.09,11.09,0,0,1,6.38.09.82.82,0,0,1-.44.52,2,2,0,0,0-2.34.58A.47.47,0,0,0,535.65,580.1Z"/><path class="cls-30" d="M380.28,584.52l.58-.51c1,.07,2.09.45,2.52-.84.33-1,.39-2.11-1.67-2.58,1.88-.71,2.7-.9,2.81.94C384.72,584.84,383.45,585.78,380.28,584.52Z"/><path class="cls-31" d="M396.82,579.18c-1,1.79,0,3.88-.82,6-1.12-1.29-.61-2.64-.61-3.83,0-1.51-.54-2.16-2.05-1.94-.16-.12-.21-.24-.17-.37s.1-.19.16-.19c1.25-1.09,2.29.34,3.45.3Z"/><path class="cls-32" d="M545.68,581.47c-.16.51-.59.47-1,.5-2.85.23-2.86.24-1.66,2.8-2-.75-2.33-2.19-1.31-5.39a4.62,4.62,0,0,1,1,.7,10.21,10.21,0,0,0,2,.57A2.51,2.51,0,0,1,545.68,581.47Z"/><path class="cls-33" d="M396.82,579.18l0-.07c1.22-1.29,2.25-.64,2.68.59a9.23,9.23,0,0,1-.17,5.83,7.43,7.43,0,0,1-.47-3.92C398.91,580.08,398.4,579.24,396.82,579.18Z"/><path class="cls-30" d="M522.76,584.94l-1.45-.83c.89,0,1.9.2,2.3-1s-.05-2.12-2-2.8c1.75-.22,2.74-.93,3.16.61C525.38,583.28,524.74,584.53,522.76,584.94Z"/><path class="cls-34" d="M550.07,578.8a2.56,2.56,0,0,0-1.87,2.85,6,6,0,0,1-.46,3.73,11.44,11.44,0,0,1-.39-6.08C547.49,578.23,549,578.58,550.07,578.8Z"/><path class="cls-35" d="M565.75,579.37c1.4-.5.62-2.08,1.42-2.87,0,2.37.07,4.74.07,7.11,0,.54.26,1.54-.94.9l-.55-.38A12.91,12.91,0,0,1,565.75,579.37Z"/><path class="cls-28" d="M579.84,578.12l1.91.49a.3.3,0,0,1-.07.46c-1.44.07-1.95.78-1.82,2.25a8.07,8.07,0,0,1-.33,3.91c-.78-1.8.17-3.66-.57-4.82-1-1.49,0-2.31.32-3.4C580.19,577,579.94,577.61,579.84,578.12Z"/><path class="cls-36" d="M586.67,578.63a10.8,10.8,0,0,1,0,6.22A13.21,13.21,0,0,1,586.67,578.63Z"/><path class="cls-37" d="M393.33,578.82v.56c-1.06,1.72,0,3.71-.94,5.51a14.68,14.68,0,0,1-.36-5.79C392.07,578.52,392.89,579,393.33,578.82Z"/><path class="cls-38" d="M455,578.62a8.06,8.06,0,0,1,0,6.23Z"/><path class="cls-39" d="M441,579.05c-1.11.29-1.19,1.11-1.19,2.09a9.59,9.59,0,0,1-.23,3.74h-.71v-5.41C439.39,578.51,440.12,578.51,441,579.05Z"/><path class="cls-40" d="M448.92,579.52c1.69-1.62,2.5-1.6,3.7.13-3.14-.48-3.4-.08-2.75,4.3a.47.47,0,0,1-.7,0C448.88,582.46,449.31,581,448.92,579.52Z"/><path class="cls-41" d="M491.33,580c.74-2.74,1.92-5.13,4.84-6.15a2.2,2.2,0,0,0,.2.23c-1.21,2.24-3,4-4.39,6.13A.77.77,0,0,1,491.33,580Z"/><path class="cls-42" d="M425.22,584.49c1.65-1.51,1.15-3.28.64-5-.28-.52.28-.89.23-1.36.13-.69-.29-1.47.34-2.08,1.28,2.63.4,5.41.49,8.12C427,585.09,425.87,584.61,425.22,584.49Z"/><path class="cls-43" d="M443.41,577.56c.16.78,1.52,1.15.17,2.5-.82.82-.15,3.12-.15,5.42-1.59-2.44.32-4.9-1.6-6.52-.17-.09-.22-.17-.16-.25a.2.2,0,0,1,.17-.11c.93-.16.77-1,1-1.6C443.31,576.93,443.55,577.06,443.41,577.56Z"/><path class="cls-44" d="M598.19,583.28v-.09c.28-1.93,1.51-1.88,2.95-1.42.51.63.26,1.36.25,2.07C600.14,584.77,598.93,585.4,598.19,583.28Z"/><path class="cls-20" d="M542.19,580.47l-.48-1.09c.76-1.3,2-1.18,3-.69s1.25,1.63,1,2.78a1,1,0,0,1-.92-.47C544.07,580,543.16,580.13,542.19,580.47Z"/><path class="cls-45" d="M583.7,579.46v5.43H583c-.53-1.75-.05-3.61-.3-5.38A.75.75,0,0,1,583.7,579.46Z"/><path class="cls-46" d="M557.68,579l.56.48a13.28,13.28,0,0,1,0,4.62l-.57.46A4.39,4.39,0,0,1,557.68,579Z"/><path class="cls-47" d="M409.83,578.73c-3.47,1.15-.94,4.37-2.34,6.32a13.1,13.1,0,0,1-.25-5.47C407.37,578.16,408.8,578.81,409.83,578.73Z"/><path class="cls-17" d="M413.82,578.58c.43.43,1.48-.39,1.53.62s.51,2.52-1.06,3.15c-.33-.11-.61-.26-.68-.65.22-1.16-.63-1.66-1.37-2.23C412.27,578.29,413.35,579,413.82,578.58Z"/><path class="cls-48" d="M419.85,579.45l.56-.51a4.56,4.56,0,0,1,0,5.58l-.59-.5A13,13,0,0,1,419.85,579.45Z"/><path class="cls-49" d="M554.2,584.06a1.55,1.55,0,0,1,1.21,2.23c-.46,1.37-1.61,1.14-2.67,1a.72.72,0,0,1-.1-.92c.57-.42,1.24-.77.93-1.68C553.6,584.32,553.92,584.21,554.2,584.06Z"/><path class="cls-50" d="M460.32,584.12l.58.39a2,2,0,0,1-3.09-.22,1.64,1.64,0,0,1,.53-2.71l.51.41A3.33,3.33,0,0,0,460.32,584.12Z"/><path class="cls-51" d="M463.81,584.81v-8.62h.39v8.51Z"/><path class="cls-52" d="M389.28,579.51c-1.14-.49-1.92.31-2.77,1a1.3,1.3,0,0,1,1-1.94c1-.25,2.16-.34,2.68,1a.65.65,0,0,1-.46.25A.89.89,0,0,1,389.28,579.51Z"/><path class="cls-53" d="M521.27,577l-.68-.57c2.73-.85,3.48-.47,4,2.23C523.44,577.85,522.75,576.48,521.27,577Z"/><path class="cls-54" d="M423.75,579.25a6.45,6.45,0,0,0,.63,5.74c-2.09-1.07-2.48-3.89-.83-5.92Z"/><path class="cls-55" d="M411.87,587c-1.16-1.19-.49-2.66-.6-4,.18-.24.35-.23.5,0,.11,1.49,1.37.71,2.06,1.06a.43.43,0,0,1,.15.38c0,.13-.05.2-.08.2-.59.56-1.41,1-1.34,2C412.44,586.91,412.29,587.19,411.87,587Z"/><path class="cls-56" d="M494.15,588.62a7.24,7.24,0,0,1-2.8-4.66.78.78,0,0,1,.67-.19c1,1.41,2.46,2.61,2.38,4.59Z"/><path class="cls-57" d="M389.28,579.51l.71,0a5.63,5.63,0,0,1,0,2.45,3.24,3.24,0,0,1-3.15.58.65.65,0,0,1,0-.78,1.79,1.79,0,0,1,1.68-.74C389.73,581,389.48,580.25,389.28,579.51Z"/><path class="cls-21" d="M601.17,582.05c-1.25-.28-2.37-.25-3,1.14-1.05-1.17,0-1.59.79-1.91a9.66,9.66,0,0,1,2.17-.38A.75.75,0,0,1,601.17,582.05Z"/><path class="cls-58" d="M538.73,579.53l.44-.52c1.32,1.88.43,3.87.4,5.82C538.6,583.14,539.49,581.23,538.73,579.53Z"/><path class="cls-23" d="M600.73,579.43c-1.13-.36-1.93.32-2.82,1.14.43-2.33,1-2.56,3.29-1.59A.77.77,0,0,1,600.73,579.43Z"/><path class="cls-59" d="M582.65,578.43c.15-1.51.57-2.73,2.59-2.32-.21,1-2,.94-1.43,2.31A.8.8,0,0,1,582.65,578.43Z"/><path class="cls-60" d="M413.82,584.63V584c2.13,1.38,2.13,2,0,3.38-.27-.16-.61-.25-.64-.65C413.41,586.05,413.58,585.33,413.82,584.63Z"/><path class="cls-61" d="M595.3,578.75a10.47,10.47,0,0,1,0,6Z"/><path class="cls-60" d="M413.82,578.58l-1.48.79a2.61,2.61,0,0,1-.26,1.69,1.18,1.18,0,0,1-.85.57C410.49,579.12,411.08,578.42,413.82,578.58Z"/><path class="cls-62" d="M532.79,578.92l-.06,6c-1-2-.49-4-.3-6.06,0,0,.12-.06.16,0A.72.72,0,0,1,532.79,578.92Z"/><path class="cls-6" d="M446.72,578.74v6h-.34v-6.11Z"/><path class="cls-63" d="M600.73,579.43l.47-.45a4.85,4.85,0,0,1,0,5.52.44.44,0,0,1-.11-.7c0-.58,0-1.17.07-1.75V580.9A1.75,1.75,0,0,0,600.73,579.43Z"/><path class="cls-59" d="M438.91,578c0-1.58.78-2.2,2.4-1.9-.16,1-2,.94-1.38,2.32C439.38,578.8,439.12,578.47,438.91,578Z"/><path class="cls-60" d="M601.1,583.8c0,.24.07.47.11.7-1.37.5-3,1.74-3-1.22A1.93,1.93,0,0,0,601.1,583.8Z"/><path class="cls-64" d="M582.65,578.43h1.16c.4.08,1.14.16,1.14.25,0,.82-.92.37-1.25.79l-1,.06c-.36-.08-.81.05-1-.45a1,1,0,0,0,.07-.46Z"/><path class="cls-65" d="M438.91,578l1,.42,1.91.18a1.45,1.45,0,0,1,0,.36l-.86.09a2.91,2.91,0,0,0-2.13.42C436.9,578.88,438.52,578.47,438.91,578Z"/><path class="cls-66" d="M389.73,582.1c.09-.86.17-1.72.26-2.58h.23a13.1,13.1,0,0,1,0,5,.2.2,0,0,1-.16.07.65.65,0,0,1-.22-.11,1.69,1.69,0,0,1-.5-1A1.81,1.81,0,0,1,389.73,582.1Z"/><path class="cls-20" d="M449.25,584h.62c.7.57,1.56-.07,2.25.57-1.13.57-2.26,1-3.18-.56Z"/><path class="cls-67" d="M464.87,492a3.22,3.22,0,0,1,.74-2.83,6.67,6.67,0,0,1,.12,3.33Z"/><path class="cls-68" d="M535.65,580.1c.25-.41.5-.38.74,0-.13,1.58.26,3.21-.37,5.08C535.4,583.31,535.8,581.69,535.65,580.1Z"/><path class="cls-57" d="M402.39,584.53l0-.57c1.26.56,2.05-.3,3-1.3.31,1.31,0,1.94-1,2.23C403.72,584.5,403,584.94,402.39,584.53Z"/><path class="cls-55" d="M411.23,581.63l.5-.63a2.89,2.89,0,0,1,2,.9l.55.45c-.77.47-1.79-.05-2.52.62l-.5,0Z"/><path class="cls-69" d="M529.25,578.53l-1.47.89c-.47.19-.51,1.38-1.21.77s.15-1,.56-1.39A2.31,2.31,0,0,1,529.25,578.53Z"/><path class="cls-70" d="M579.84,578.12l-.56-1.11c.4-1.09,1.15-1.27,2.21-.85C581.29,577.14,579.94,577.12,579.84,578.12Z"/><path class="cls-71" d="M499.71,545.42a2.38,2.38,0,0,1-.58,2.33,3.33,3.33,0,0,1-.29-2.32Z"/><path class="cls-72" d="M545.21,582.91c.45,1.28,0,1.88-1.6,2.1Z"/><path class="cls-73" d="M443.41,577.56l-.55-.56c.35-1.09,1.14-1.15,2.16-1C445,577.21,443.76,576.91,443.41,577.56Z"/><path class="cls-74" d="M389.79,583.37l.06,1.13c-1,.41-2,1.08-3,0a.93.93,0,0,1,.64-.72A9.8,9.8,0,0,1,389.79,583.37Z"/><path class="cls-75" d="M552.73,586.6c0,.24,0,.48,0,.72-1.3-.36-1.91-1-1.11-2.37a.58.58,0,0,1,.67-.09A1.91,1.91,0,0,1,552.73,586.6Z"/><path class="cls-76" d="M449.25,584h-.31a9.14,9.14,0,0,1,0-4.44C449.63,581,449.1,582.48,449.25,584Z"/><path class="cls-77" d="M491.81,584h-.46c0-1.33,0-2.65,0-4h.47A3.22,3.22,0,0,1,491.81,584Z"/><path class="cls-78" d="M402.35,579.38,402,579a1.93,1.93,0,0,1,2.85,0l-.12.3A1.87,1.87,0,0,1,402.35,579.38Z"/><path class="cls-79" d="M423.75,579.25a.28.28,0,0,0-.2-.18c.48-1.2,1.55-.33,2.28-.64.16-.2.33-.21.49,0-.16.34-.31.67-.46,1Z"/><path class="cls-80" d="M552.28,585l-.65,0-.12-.93.8-.08,1.89.12-.54.51A1.05,1.05,0,0,1,552.28,585Z"/><path class="cls-81" d="M496.35,549v-1.47c.22-.31.31-.86.9-.48,0,.5,0,1,0,1.48Z"/><path class="cls-55" d="M387.35,584.09l-.47.38a1.63,1.63,0,0,1,0-2.69l.11.78A1.62,1.62,0,0,1,387.35,584.09Z"/><path class="cls-82" d="M405.42,581.53l-.66-.65a1.49,1.49,0,0,1,.11-1.93h0C405.74,579.65,405.58,580.59,405.42,581.53Z"/><path class="cls-18" d="M426.32,578.43h-.49c.13-.82-.45-1.83.6-2.43C426.39,576.81,426.35,577.62,426.32,578.43Z"/><path class="cls-38" d="M402.39,584.53c.66,0,1.37-.25,1.92.36-.82.13-1.68.51-2.3-.42A.43.43,0,0,0,402.39,584.53Z"/><path class="cls-74" d="M413.19,586.85l.64.56c-.71.11-1.44.28-2-.45l.46-.39C412.78,586.18,413,586.49,413.19,586.85Z"/><path class="cls-83" d="M553.74,578.55l0,.56c-.46.32-.9,1-1.48.16a.46.46,0,0,0-.3-.23C552.32,578.08,553.09,578.52,553.74,578.55Z"/><path class="cls-4" d="M420.8,206q0,10.74,0,21.46c0,3.37-.31,3.67-3.75,3.68-2.75,0-5.5,0-8.24,0-2.09,0-3-.8-3-3q0-21.49,0-43c0-2.3,1.07-3.11,3.22-3.07,3,.06,6,.1,9,0a4.52,4.52,0,0,1,4.63,2.65c1.78,3.39,3.66,6.73,5.56,10,1.28,2.23,2.23,2.22,3.48,0,1.88-3.34,3.76-6.68,5.51-10.08a4.32,4.32,0,0,1,4.39-2.61q4.62.1,9.24,0c2.17-.05,3.15.73,3.14,3.06q-.09,21.49,0,43c0,2.14-.79,3-2.95,3-3.07-.1-6.16-.1-9.24,0-2.27.07-3.06-.92-3-3.15.09-7.31,0-14.61,0-22.45a25.34,25.34,0,0,0-3.76,6.22c-1.19,2.36-3.06,2.7-5.38,2.71s-4-.51-5.11-2.73c-1-2-2.11-3.92-3.18-5.88Z"/><path class="cls-4" d="M296.83,204.32c6.1,2.57,7.55,4.78,7.55,11.21,0,4.25,0,8.5,0,12.75,0,2-.83,2.88-2.84,2.84q-4.86-.09-9.74,0c-2,0-2.84-.91-2.81-2.89.05-3.25,0-6.5,0-9.74,0-2.34-1-3.36-3.32-3.3s-4.5.12-6.74,0c-1.73-.1-2.08.64-2,2.2.1,3.58,0,7.16.05,10.74,0,2.08-.8,3.08-3,3-2.91-.08-5.83,0-8.74,0-3.29,0-3.71-.42-3.71-3.77q0-20.75,0-41.49a12.29,12.29,0,0,1,.06-1.49,2.14,2.14,0,0,1,2.28-2.17c8.9.1,17.82-.57,26.7.35,6,.61,9.15,4.38,9.35,10.36,0,1.41,0,2.83,0,4.24C300,199.9,299.36,202.43,296.83,204.32Z"/><path class="cls-4" d="M355.37,217.22c-1.33-7.31,1.55-15.37,4.84-23.36,1.2-2.92,2.34-5.87,3.39-8.85a3.8,3.8,0,0,1,3.89-2.87c6,0,12,0,18,0a3.52,3.52,0,0,1,3.56,2.56c2.2,5.93,4.52,11.81,6.73,17.73a29.25,29.25,0,0,1,1.74,10.78c-.08,4.75,0,9.49,0,14.24,0,3.3-.37,3.63-3.56,3.64-3,0-6,0-9,0-1.87,0-2.74-.84-2.7-2.73,0-2.5,0-5,0-7.5,0-1.37-.39-2-1.84-1.9-2.83.09-5.67.09-8.49,0-1.48-.05-1.87.55-1.84,1.91.07,2.5,0,5,0,7.49,0,1.86-.76,2.78-2.68,2.74-3.08-.05-6.16,0-9.24,0-2,0-2.91-.75-2.85-2.82C355.43,225.13,355.37,222,355.37,217.22Z"/><path class="cls-4" d="M312,206.51c0-7,0-14,0-21,0-2.79.57-3.38,3.36-3.39q14.87,0,29.72,0c2.78,0,3.29.56,3.31,3.43,0,2.16-.07,4.33,0,6.49s-.95,3.1-3.16,3.07c-5.24-.07-10.49.1-15.72-.08-2.24-.08-2.34.95-2.37,2.67s.25,2.56,2.27,2.45c3.49-.18,7,0,10.49-.06,2.11,0,3.05.93,3,3s-.09,4,0,6c.12,2.44-1.08,3.25-3.34,3.21-3.41-.06-6.82,0-10.23,0-1.55-.05-2.23.31-2.18,2,.15,4.68-.33,3.72,3.63,3.77,4.74.06,9.49,0,14.23,0,2.8,0,3.34.58,3.36,3.39,0,2.33,0,4.66,0,7a2.27,2.27,0,0,1-2.59,2.6q-15.6,0-31.21,0c-2.15,0-2.62-1.28-2.61-3.1C312,220.84,312,213.67,312,206.51Z"/><path class="cls-4" d="M186.78,231.1c-3.74,0-7.49-.06-11.23,0-2.15,0-3-.94-3-3,0-2.25.06-4.5,0-6.74s.94-3.33,3.28-3.3c5.4.07,10.81,0,16.22,0,1.36,0,2.79.13,3-1.78s-1.08-2.36-2.62-2.57c-3-.39-5.92-.86-8.89-1.25-7.94-1.06-10.94-4.44-11-12.38,0-2,0-4,0-6,.14-6.36,3.63-10.68,9.89-11.54,7.77-1.07,15.62-.32,23.43-.41a2,2,0,0,1,2.14,2.25c0,2.83,0,5.66,0,8.49,0,1.76-1,2.29-2.57,2.28-4.16,0-8.32,0-12.48,0-.75,0-1.5,0-2.25,0-1.3.07-2.58.25-2.69,1.94s1,2.26,2.49,2.45c3.3.41,6.6.82,9.88,1.39,7.5,1.31,10.09,4.46,10.1,12.05,0,1.75,0,3.5,0,5.24,0,7.86-4.33,12.42-12.23,12.74-3.82.16-7.65,0-11.48,0Z"/><path class="cls-4" d="M532.57,231.1c-3.75,0-7.49-.06-11.23,0-2.18.05-3-1-3-3,0-2.24,0-4.49,0-6.74s.94-3.32,3.3-3.29c5.4.08,10.81,0,16.22,0,1.36,0,2.78.13,3-1.8s-1.08-2.35-2.63-2.55c-2.88-.38-5.75-.83-8.63-1.22a19.83,19.83,0,0,1-5.75-1.59,8.58,8.58,0,0,1-5.12-6.87,46.69,46.69,0,0,1-.23-11c.48-6.07,4-9.62,10.05-10.62,4.3-.72,8.64-.29,13-.37,3.16-.07,6.32,0,9.48,0,1.94,0,3,.78,2.9,2.83-.06,2.58,0,5.16,0,7.74,0,1.81-.83,2.53-2.59,2.51-4.33,0-8.66,0-13,0-.67,0-1.34,0-2,0-1.24.1-2.36.43-2.44,2s.81,2.2,2.27,2.39c3.46.45,6.93.87,10.37,1.46,7.14,1.24,9.83,4.52,9.86,11.78q0,2.74,0,5.49c0,7.84-4.35,12.41-12.24,12.73-3.82.16-7.65,0-11.48,0Z"/><path class="cls-4" d="M494.42,231.1c-4.66,0-9.32,0-14,0-2,0-2.92-.77-2.87-2.81.07-2.58,0-5.16,0-7.74,0-1.78.82-2.59,2.59-2.55,1.58,0,3.17-.06,4.74,0,1.32.06,1.74-.46,1.73-1.75q-.07-9.61,0-19.23c0-1.42-.5-1.94-1.89-1.88-1.58.08-3.16,0-4.74,0s-2.44-.74-2.43-2.4c0-2.58.07-5.17,0-7.74-.08-2.2,1-2.95,3-2.94,6.65,0,13.31,0,20,0,2.58,0,5.16,0,7.74,0,2.1,0,3,.91,2.95,3-.08,2.49-.06,5,0,7.49,0,1.79-.79,2.62-2.57,2.54-.58,0-1.17,0-1.75,0-4.65,0-4.65,0-4.65,4.78,0,5.33.06,10.66,0,16,0,1.68.53,2.29,2.13,2.05a4.17,4.17,0,0,1,.5,0c6.95,0,6.38-.61,6.37,6.53s.65,6.54-6.6,6.55C501.25,231.11,497.84,231.1,494.42,231.1Z"/><path class="cls-4" d="M234.85,182.14c5.66,0,11.31.05,17,0,2.34,0,3.36.92,3.28,3.26s-.06,4.66,0,7c0,2-.74,2.93-2.8,2.86-2.5-.09-5,.08-7.49-.05-1.81-.1-2.24.63-2.23,2.32.06,10,0,20,0,30,0,3.46-.19,3.63-3.72,3.64-2.91,0-5.82,0-8.73,0s-3.31-.39-3.32-3.34c0-9.91-.08-19.81.05-29.72,0-2.33-.64-3.06-2.92-2.88s-4.82,0-7.24,0a2,2,0,0,1-2.26-2.31c0-2.49,0-5,0-7.49,0-2.77.5-3.24,3.43-3.25C223.54,182.12,229.19,182.14,234.85,182.14Z"/><path class="cls-84" d="M353.89,266.51c-1.83.42-2.7,0-2.6-2.19.18-4,0-8,.08-12,0-.81-.71-2.36,1-2.26,1.44.08,3.32-1.12,4.28,1.23,1.51,3.69,3.19,7.31,4.86,10.93.31.67.25,1.75,1.59,1.76-1-4-.36-8-.5-12,0-.9-.43-2,1.28-2.07s1.41,1.2,1.42,2.19c0,4.07,0,8.15,0,12.22,0,.78.55,2.18-.89,2.13s-3.39,1.05-4.37-1.16c-1.69-3.79-3.42-7.56-5.13-11.33-1.36.16-.67,1.22-.71,1.83C353.94,259.41,354.45,263,353.89,266.51Z"/><path class="cls-84" d="M305.19,258.3v6.49c0,.92.15,1.83-1.31,1.84s-1.54-.77-1.36-1.75c.48-2.61-.82-3.16-3-2.84a9.44,9.44,0,0,1-2.49,0c-2.26-.32-3.53.28-3.06,2.87.18,1-.06,1.74-1.41,1.72s-1.15-.88-1.16-1.69c0-4,0-8,0-12,0-1.92.76-3,2.8-2.95,3.17,0,6.33.06,9.49,0,1.2,0,1.61.37,1.57,1.57C305.14,253.8,305.19,256.05,305.19,258.3Z"/><path class="cls-84" d="M432.28,258.21c0-1.83,0-3.65,0-5.48s.91-2.75,2.78-2.72c2.74,0,5.48,0,8.22,0,1.87,0,2.84.92,2.87,2.68.07,3.82,0,7.64,0,11.46a2.23,2.23,0,0,1-2.32,2.42c-3.07.07-6.14.06-9.21,0-1.63,0-2.33-1.08-2.34-2.63C432.27,262,432.28,260.12,432.28,258.21Z"/><path class="cls-85" d="M463.57,264.11c-.81-4.36-.24-8.59-.43-12.79-.06-1.19.57-1.3,1.53-1.33,1.12,0,1.15.59,1.15,1.42,0,4.32,0,8.64-.05,13,0,.75.69,2.2-.79,2.14s-3.38,1.12-4.36-1.11c-1.6-3.65-3.21-7.3-4.9-10.9-.33-.72-.28-1.95-1.6-1.87.75,4.2.23,8.41.39,12.6,0,.88-.19,1.38-1.23,1.39s-1.44-.39-1.43-1.46c0-4.57,0-9.15,0-13.72,0-.65-.08-1.55.9-1.38,1.46.26,3.36-1.08,4.33,1.13,1.59,3.65,3.2,7.3,4.86,10.92C462.26,262.81,462.29,263.78,463.57,264.11Z"/><path class="cls-85" d="M426.53,258.41c0,1.91,0,3.81,0,5.72a2.27,2.27,0,0,1-2.51,2.46c-2.9,0-5.8,0-8.71,0a2.33,2.33,0,0,1-2.55-2.66q0-5.61,0-11.2c0-1.85.9-2.74,2.75-2.72,2.74,0,5.48,0,8.21,0,1.87,0,2.78.87,2.81,2.68s0,3.82,0,5.73Z"/><path class="cls-84" d="M402.37,250c1.33,0,2.66,0,4,0,.72,0,1.32.05,1.31,1s-.26,1.41-1.27,1.39c-2,0-4,.11-6,0-2.17-.16-1.63,1.32-1.65,2.46s-.37,2.68,1.73,2.39a10.72,10.72,0,0,1,1.5,0c5.46,0,7,2.1,5.57,7.43a2.29,2.29,0,0,1-2.3,1.91c-2.67,0-5.33,0-8,0-.73,0-1.29-.09-1.3-1.06s.46-1.31,1.38-1.3c2,0,4-.1,6,0s1.58-1.22,1.55-2.31.55-2.51-1.5-2.36c-1.32.09-2.66,0-4,0a3.86,3.86,0,0,1-1.72-.15c-3-1.72-1.42-4.62-1.59-7-.12-1.61,1.06-2.52,2.79-2.45C400,250.05,401.2,250,402.37,250Z"/><path class="cls-84" d="M268.38,250c1.33,0,2.66,0,4,0,.87,0,1.15.36,1.13,1.19s-.28,1.23-1.15,1.23c-2.08,0-4.16.09-6.23,0s-1.61,1.21-1.58,2.31-.52,2.66,1.63,2.55a46.64,46.64,0,0,1,4.73,0c1.67.08,2.49,1,2.6,2.7.41,6.4.24,6.62-6.13,6.62-1.25,0-2.5,0-3.74,0-.77,0-1.71.31-1.71-1.1s.72-1.26,1.61-1.25c1.83,0,3.67-.12,5.48,0s1.93-.93,1.89-2.3.26-2.59-1.79-2.38a37.72,37.72,0,0,1-4,0,3.26,3.26,0,0,1-1.48-.12c-3.15-1.75-1.35-4.74-1.63-7.18-.18-1.56,1.05-2.31,2.62-2.3Z"/><path class="cls-86" d="M381.34,265.45c-.85,1.68-2.42,1.12-3.75,1.13-6.56.05-6.56,0-6.56-6.44,0-2.32,0-4.64,0-7,0-2.08.87-3.25,3.15-3.19,3.39.1,6.78.08,10.18.11.71,1.7,0,2.23-1.68,2.18-2.4-.08-4.81,0-7.22-.05-1.35,0-1.94.32-1.88,1.8.1,2.82.1,5.65,0,8.47-.06,1.56.59,2.08,2,2s2.66,0,4,0C380.29,264.57,381.2,264.33,381.34,265.45Z"/><path class="cls-84" d="M311.47,252c-.43-1.23-.43-2.07,1.29-2,3.24.08,6.48,0,9.72,0a2.27,2.27,0,0,1,2.53,2.45c.06,2.32,0,4.65,0,7-.06,2.63-2.2,2.14-4.61,2.35l5,4-.77.82c-4.31.37-5.66-3.69-8.26-5.88,0-1.49,1.13-.89,1.79-.91,4.56-.18,4.57-.15,4.55-4.54,0-3.35.41-2.89-3.08-3C316.87,252.12,314.15,252.74,311.47,252Z"/><path class="cls-84" d="M280.76,259.57c0-1.67-.12-3.34,0-5,.16-1.82-.58-2.4-2.26-2.16-.49.06-1,0-1.5,0-.89,0-1.09-.49-1.11-1.27s.38-1.15,1.19-1.14q5,0,10,0c.89,0,1.16.4,1.12,1.22s-.33,1.18-1.2,1.21c-1.13,0-2.63-.53-3.32.3-.82,1-.26,2.56-.28,3.87q-.07,4.25,0,8.49c0,1-.19,1.52-1.36,1.53s-1.32-.63-1.3-1.57C280.79,263.23,280.76,261.4,280.76,259.57Z"/><path class="cls-84" d="M332.27,259.48v-3c0-3.63,0-3.67-3.57-4-.95-.1-1.29-.4-1.3-1.35s.46-1.1,1.24-1.09c3.24,0,6.49,0,9.73,0,.7,0,1.36,0,1.35,1s-.19,1.32-1.22,1.45c-3.62.46-3.62.51-3.62,4.2,0,2.83,0,5.66,0,8.49,0,1.06-.31,1.49-1.42,1.48s-1.23-.52-1.21-1.4C332.3,263.31,332.28,261.39,332.27,259.48Z"/><path class="cls-87" d="M381.34,265.45c-1.81-.95-3.74-.34-5.6-.39-1.68-.05-2.43-.58-2.39-2.34.08-3,.06-6,0-9,0-1.28.46-1.78,1.75-1.75,2.49.06,5-.05,7.47,0,1.49.05,1.93-.61,1.79-1.94,1,2,.87,2.28-1.09,2.32q-3.87.08-7.72,0c-1.18,0-1.84.16-1.79,1.59.1,2.91.08,5.82,0,8.72,0,1.25.48,1.58,1.62,1.53a31.9,31.9,0,0,1,4.48,0c1.89.18,2.43-.4,2.55-2.41.2-3.44-2.35-1.78-3.68-2.36a4.51,4.51,0,0,1,5.47-2.21c.9.33.71,1,.71,1.63,0,2,0,4,0,6,0,.66.36,1.64-.85,1.68-.76,0-1.7.38-1.8-1C382.22,264.86,381.67,265.41,381.34,265.45Z"/><path class="cls-86" d="M311.47,252c3.22,0,6.45,0,9.68,0,1.24,0,1.88.4,1.76,1.71,0,.33,0,.67,0,1,0,5,0,5-4.86,5.3-.67,0-1.34,0-1.73.7-.88-.66-.77-1,.33-1,1.41,0,2.82-.07,4.23,0,1.2.07,1.51-.4,1.56-1.57.29-5.68.32-5.53-5.41-5.74-2.6-.09-3.4.63-3.2,3.23.24,3.13,0,6.3.06,9.46,0,.93-.06,1.58-1.29,1.58s-1.38-.5-1.37-1.51c0-3.07.08-6.14,0-9.21,0-1.39.95-2,1.65-2.91C312.81,252,311.59,252.81,311.47,252Z"/><path class="cls-85" d="M345.42,258.42c0,2.16,0,4.31,0,6.47,0,1,0,1.76-1.39,1.74s-1.23-.74-1.23-1.61q0-6.72,0-13.44c0-.88,0-1.58,1.23-1.6s1.4.72,1.39,1.72C345.4,253.94,345.42,256.18,345.42,258.42Z"/><path class="cls-88" d="M267.42,289.6c-1.91-.06-3.82-.09-5.72-.18-1.13-.06-1.57.31-1.65,1.54-.47,6.86-.51,6.86,6.19,7,.4,0,.81,0,1.33.07-.3,1.08-1.08.94-1.76.95-1.58,0-3.16,0-4.74,0-.87,0-1.89-.12-1.94-1.13a41.48,41.48,0,0,1,.11-8.7c0-.22.48-.38.73-.58,2,.5,4.09.08,6.13.24C266.65,288.82,267.53,288.45,267.42,289.6Z"/><path class="cls-89" d="M413.82,289.59c-2-.06-4-.1-6-.17-.9,0-1.46.25-1.37,1.27a4.21,4.21,0,0,1,0,.5c-.29,6.59-.29,6.59,6.11,6.75.44,0,1-.22,1.55.65a21.41,21.41,0,0,1-7.85.11,1.06,1.06,0,0,1-.82-1.13c0-2.74,0-5.48.06-8.22a.89.89,0,0,1,.84-.79c2,.47,4.09.06,6.13.22C413,288.82,413.91,288.45,413.82,289.59Z"/><path class="cls-90" d="M267.42,289.6c-1.16-1.2-2.63-.35-3.93-.59s-2.44.43-3.52-.47c2.14,0,4.29,0,6.43-.12,1.54-.08,2.07.65,2,2.08,0,.82,0,1.65,0,2.48,0,3.34-.61,3.74-4,2.64a1.36,1.36,0,0,1-.18-.68,3.45,3.45,0,0,1,.71-2c-.34-1.76-1.81-.4-2.59-.94-.06,0-.14-.15-.12-.19a1.66,1.66,0,0,1,.23-.31,5.24,5.24,0,0,1,3.41,0,2.37,2.37,0,0,1,0,2c-.39,1.47-.09,2.19,1.55,1.4Z"/><path class="cls-91" d="M349.91,296a8.14,8.14,0,0,0-4-1c-1.73,0-1.14-1.59-.83-2.23a10.19,10.19,0,0,1,3.41-3.56c.76-.53,1,.16.94.84-.68.9-1.33,1.82-1.95,2.72.19.22.31.2.46.06.59-.6.3-2.17,1.47-2,1.36.25.62,1.63.7,2.49A4.59,4.59,0,0,1,349.91,296Z"/><path class="cls-92" d="M281.07,294.51c.91,1.42,2.66-.06,4,1.31a9.82,9.82,0,0,1-4.24.18c-.93-.13-1.48-3.72-.62-4.4a4,4,0,0,1,4-.25c1.22.54.66,1.66.16,2.57a2.53,2.53,0,0,1-2.33.28c-1.39-.24-.4-.81-.05-1.27C281,293.06,281.38,294,281.07,294.51Z"/><path class="cls-93" d="M341.42,295.94c-.18-1.53-1.4-.91-2.11-.86-1.73.12-2.15-.78-1.63-2.07a8.15,8.15,0,0,1,3.72-3.82c.94-.53.76.32.53.88-.4,1.09-1.51,1.71-1.93,2.81.48.19.57-.2.71-.43.37-.61.58-1.64,1.46-1.4s.38,1.28.45,1.95a10.2,10.2,0,0,1,0,2.47C342.5,296.18,342.1,296.51,341.42,295.94Z"/><path class="cls-94" d="M246.46,287l.64.13c.19,1.1,1.05,1.88,1.42,2.87a8.1,8.1,0,0,1-1.81,9.14,1,1,0,0,1-.89-.62c-.13-.89.45-1.55.76-2.3a7,7,0,0,0-3.67-9.47c-.73-.35-1.58-.5-2-1.27,0-.67.46-.83,1-.9C243.78,284.66,245.11,285.86,246.46,287Z"/><path class="cls-93" d="M487.82,295.94c-.18-1.53-1.4-.91-2.12-.86-1.72.12-2.15-.79-1.62-2.07a8.15,8.15,0,0,1,3.72-3.82c.93-.53.76.31.53.88-.4,1.09-1.51,1.71-1.93,2.81.47.19.57-.2.71-.43.37-.61.58-1.64,1.46-1.4s.38,1.28.44,1.95a10.2,10.2,0,0,1,0,2.47C488.89,296.18,488.5,296.51,487.82,295.94Z"/><path class="cls-95" d="M476.35,261.82c1.83-3.44,4.6-2.13,7.24-2.37C481.92,262.89,479.09,261.58,476.35,261.82Z"/><path class="cls-96" d="M496.26,296c-1.18-.24-2.05-1.26-3.47-1-2,.35-1.77-1.41-1.25-2.2.89-1.38,1.84-2.94,3.74-3.27.76,1.66-1.08,2.18-1.47,3.47,1.24-.19.93-2.21,2.54-1.92A11.45,11.45,0,0,1,496.26,296Z"/><path class="cls-97" d="M392.77,286.41l.73.74a4.11,4.11,0,0,0,.43,1.15c2.47,4.06,2.23,7.16-.8,10.85a1,1,0,0,1-.9-.59,2.58,2.58,0,0,1,.42-1.64c1.78-4.09,1.37-6.12-1.87-9.31a3.18,3.18,0,0,1-1.07-1.34,1,1,0,0,1,.54-.88C391.27,285.29,391.79,286.41,392.77,286.41Z"/><path class="cls-98" d="M413.82,289.59c-1.16-1.18-2.62-.34-3.93-.58-1.16-.21-2.44.42-3.52-.45,2.23,0,4.46-.09,6.7-.12.67,0,1.53,0,1.58.84.12,2,.51,4.1-.08,5.89s-2.42,1-3.8.45a1.36,1.36,0,0,1-.18-.68,3.28,3.28,0,0,1,.72-2l0,0c1-.15.69.67.73,1.12.11,1.35.77,1.38,1.74.8Z"/><path class="cls-99" d="M244.94,261.37c1.63-3,4.33-1.68,6.84-1.87C250,262.07,248.33,262.5,244.94,261.37Z"/><path class="cls-100" d="M246.45,299c2.83-3.33,3.12-6.16,1.07-10-.3-.56-.87-1.07-.42-1.81,5.43,5.85,1.06,14.4-5.14,15.32a.76.76,0,0,1-.21-.64A16,16,0,0,1,246.45,299Z"/><path class="cls-100" d="M392.85,299c2.78-3.21,3.14-6.42,1.13-10-.32-.56-.91-1-.48-1.79,4.73,6,2.23,13.41-5.15,15.31a.79.79,0,0,1-.2-.64A15.47,15.47,0,0,1,392.85,299Z"/><path class="cls-101" d="M460.82,289c.68-1,.94-.29.88.31-.12,1.46.24,2.13,1.87,1.74a1.47,1.47,0,0,1,2,1,7,7,0,0,1-.07,3.66c0,.12-.51.25-.59.17a2.51,2.51,0,0,1-.46-.78c-.44-1,1-3-1.35-3s-.84,2.15-1.36,3.21a3,3,0,0,1-.42.53C460.66,293.65,461.51,291.29,460.82,289Z"/><path class="cls-102" d="M290.69,296c-1.73-.41-3.17-2.74-4.68.47,1.06-2,1.66-3.54-.2-5.14,1.53-.29,1.67,1,2.38,1.34.79-.24.74-1.56,2.13-1.42C289.31,292.82,288.53,294.45,290.69,296Z"/><path class="cls-103" d="M436.91,296c-1.56-1.07-3-1.73-4.45.13.59-1.72,2.32-3.26-.58-4.76,1.85-.41,2,.85,2.68,1.23.8-.23.83-1.44,2.24-1.48C435.57,292.83,435.29,294.43,436.91,296Z"/><path class="cls-104" d="M427.8,295.05c1.08.32,2.3-.26,3.34.73-1.48.21-3.28.94-4.37-.18-.93-.94-.81-2.73,0-4.1a6.59,6.59,0,0,1,3.93,0,1.19,1.19,0,0,1,0,2c-.38.14-.64-.06-.91-.28C427.48,291.94,428,293.9,427.8,295.05Z"/><path class="cls-105" d="M341.42,295.94c.95.18,1.11-.37,1.1-1.14,0-1.18,0-2.37,0-3.65-1.23.37-1.09,1.12-1.07,1.74,0,.87-.34,1.25-1.18,1.15-.53-.07-1.27.32-1.53-.4s.43-1,.83-1.4c.76-.75,1.58-1.45,2.37-2.17,1.85,1.76.91,3.94.77,5.94C342.65,296.66,341.84,296.54,341.42,295.94Z"/><path class="cls-105" d="M487.82,295.94c.95.18,1.11-.37,1.09-1.14,0-1.18,0-2.37,0-3.65-1.23.37-1.1,1.12-1.08,1.74,0,.87-.34,1.25-1.17,1.15-.53-.07-1.27.32-1.53-.4s.45-1,.83-1.39c.75-.76,1.57-1.46,2.37-2.18,1.85,1.76.91,3.94.77,5.94C489.05,296.66,488.24,296.54,487.82,295.94Z"/><path class="cls-106" d="M496.26,296v-5.48c-1.33,1.7-.72,5-3.83,3.16.18-1.85,2.83-2.15,2.85-4.17C497.53,291.38,497.1,293.66,496.26,296Z"/><path class="cls-107" d="M312.78,291.11c-.7,1.58-3.14.18-2.93,2.65.2,2.27,2.28.68,3,2.17-1.36.18-2.75.65-3.65-.25s-.73-2.63-.23-3.75C309.7,290.38,311.29,291.25,312.78,291.11Z"/><path class="cls-106" d="M349.91,296v-5.26c-1.54,1.09-.68,4.65-3.85,2.93a10,10,0,0,1,3.36-3.62C351,291.92,350.56,294,349.91,296Z"/><path class="cls-107" d="M296,296c-1-.64-.38-1.64-.48-2.46s-.14-1.41-1.21-1.4-1.3.38-1.31,1.31a4.17,4.17,0,0,1-.5,2.86c-1-1.72-1.12-3.74-.29-4.67s2.81-1,4.26,0a.49.49,0,0,1,0,.68C295.79,293.42,296.55,294.77,296,296Z"/><path class="cls-107" d="M442.35,296c-1-.64-.38-1.63-.48-2.45s-.13-1.42-1.21-1.41-1.19.44-1.31,1.33.68,2.36-.68,2.38c-.82,0-.39-1.56-.41-2.4-.05-2.45,1.28-3,4.56-1.84a.49.49,0,0,1,0,.68C442.18,293.42,443,294.77,442.35,296Z"/><path class="cls-108" d="M296.34,292.15l.08-.59c3.25-1.14,4.12-.51,3.94,2.85,0,.6.28,1.61-.68,1.56s-.64-1-.6-1.65c.13-2.11-.57-2.87-2.59-1.73-.15-.06-.23-.14-.22-.25S296.3,292.15,296.34,292.15Z"/><path class="cls-108" d="M442.74,292.15l.08-.59c3.25-1.14,4.12-.51,3.94,2.85,0,.6.28,1.61-.68,1.56s-.64-1-.6-1.65c.12-2.11-.58-2.87-2.59-1.73-.16-.06-.23-.14-.22-.25S442.7,292.15,442.74,292.15Z"/><path class="cls-109" d="M314.44,289c.24-.52.8-.55.74,0-.25,2.07.74,2.42,2.47,2.15a1,1,0,0,1,1.26.87c-.67,1.23.14,2.64-.48,3.88-.83-.74-.33-1.71-.38-2.56s-.46-1.27-1.38-1.27-1.37.22-1.42,1.23c-.05.86.4,1.82-.35,2.59C313.86,293.65,314.69,291.3,314.44,289Z"/><path class="cls-102" d="M458.81,296c-1.32-.3-3.52,1.4-3.61-1.68s.32-3.58,4.31-2.8c-2.23.5-3.81,1.17-3.18,3.45C456.92,295.85,458.45,294.49,458.81,296Z"/><path class="cls-91" d="M419.68,292.11a8,8,0,0,1-3.53-.48c2-.71,3.77-1.25,4.74.18.73,1.06,1.26,3-.55,4.19a1.2,1.2,0,0,1-.71-1.11C419.32,294,420.67,293.06,419.68,292.11Z"/><path class="cls-91" d="M273.28,292.11a8,8,0,0,1-3.53-.48c2-.71,3.77-1.25,4.74.18.73,1.06,1.26,3-.54,4.19a1.18,1.18,0,0,1-.71-1.11C272.92,294,274.28,293.06,273.28,292.11Z"/><path class="cls-110" d="M302.38,291.5c1-.62,2.1-.39,3.16-.37.85,0,1.54.46,1.37,1.38-.22,1.16.88,2.6-.68,3.48-.06,0-.26-.16-.4-.25a4.61,4.61,0,0,1-.38-.65c-.12-1.4-.41-2.61-2.23-2.61A.79.79,0,0,1,302.38,291.5Z"/><path class="cls-111" d="M353.89,266.51c-.22-4.42.6-8.88-.48-13.27-.09-.39,0-.71.44-.66.82.1,1,.75,1,1.45-1,3.11-.18,6.31-.48,9.46C354.29,264.5,354.83,265.63,353.89,266.51Z"/><path class="cls-110" d="M452.3,295c.67-2.86-1.2-3.14-3.4-3.17,1.45-1,3.17-1.21,4.08-.12s.63,2.81.06,4.22c-.12.31-.57.05-.79-.24A.42.42,0,0,1,452.3,295Z"/><path class="cls-112" d="M384.39,302.41a9,9,0,0,1-6.91-6.92,1.28,1.28,0,0,1,.59-.33,1.53,1.53,0,0,1,.67.12,1,1,0,0,1,.4.55,6.66,6.66,0,0,0,3.35,4.33c.74.47,1.7.68,2.09,1.61A.78.78,0,0,1,384.39,302.41Z"/><path class="cls-113" d="M305.89,295l-.06.79c-1.24.4-2.59.86-3.63-.18-.69-.7-.38-1.67.29-2.41,2.28-1.12,2.6-.95,2.8,1.42C305.3,294.68,305.7,294.79,305.89,295Z"/><path class="cls-114" d="M392.77,286.41c-1.08.55-1.58-.69-2.45-.78a5.32,5.32,0,0,1-2.06-.22,5.23,5.23,0,0,0-3.34,0c-1.16.16-2.14,1.14-3.42.77a.39.39,0,0,1-.21-.38c0-.15,0-.22.09-.22C385.48,283.06,388.9,283.3,392.77,286.41Z"/><path class="cls-91" d="M452.3,295l-.05.69a2.61,2.61,0,0,1-.91.37c-1,0-2.2.58-2.87-.71a1.43,1.43,0,0,1,.12-1.64c.92-1,2-.63,3.17-.41-.53,1.24-1.71.4-2.29,1.27C450.27,295.49,451.33,295,452.3,295Z"/><path class="cls-4" d="M424.23,288.26a51.45,51.45,0,0,1-.25,8.27C423,293.73,423.06,290.13,424.23,288.26Z"/><path class="cls-115" d="M305.89,295c-.94.16-1.9.45-2.8-.25.31-1.21,1.8-.12,2.2-1.36a5.68,5.68,0,0,0-2.8-.19c-.12-.54-.88-1-.11-1.65a.79.79,0,0,0,.95.54C305.88,291.53,306.06,293.08,305.89,295Z"/><path class="cls-4" d="M277.67,288.66v7.24h-.76C276.88,293.49,276.67,291.09,277.67,288.66Z"/><path class="cls-116" d="M324.9,291.54c4.08-1,4.81-.17,3.66,5-1.05-1.91.36-5.78-3.56-4.36a.48.48,0,0,1-.19-.41C324.83,291.62,324.86,291.54,324.9,291.54Z"/><path class="cls-116" d="M471.3,291.54c4.07-1,4.8-.17,3.66,5-1.06-1.91.36-5.78-3.56-4.36a.46.46,0,0,1-.19-.41C471.23,291.62,471.26,291.54,471.3,291.54Z"/><path class="cls-89" d="M413.82,294.93c-1.52.61-1.52.61-2.47-1.92-.26-1.86-2.1-.23-2.78-1.32a2.94,2.94,0,0,1,3.42-.36c.93.4.48,1.49.36,2.26C412.16,294.86,412.55,295.34,413.82,294.93Z"/><path class="cls-4" d="M314.44,289c1,2.23.15,4.58.46,6.86-1.4-.05-.71-1.14-.71-1.68C314.2,292.48,313.85,290.72,314.44,289Z"/><path class="cls-117" d="M238,302.42a8.76,8.76,0,0,1-6.41-5.44.89.89,0,0,1,.63-.21,76.55,76.55,0,0,0,6,5A.8.8,0,0,1,238,302.42Z"/><path class="cls-87" d="M335.38,296a12.51,12.51,0,0,1-3.91-.12,7.15,7.15,0,0,1-.06-4.34h0a5.9,5.9,0,0,1,3.89,0c0,.63,0,1.27,0,1.9-.48.14-.59-.06-.45-.5-.28-1.62-1.64-1-2.3-.79-1.34.47-.33,1.84-.63,2.77.68.66,1.53.17,2.29.33C334.68,295.37,335.47,295,335.38,296Z"/><path class="cls-87" d="M481.27,293c-.25-1.65-1.64-1-2.29-.81-1.36.47-.33,1.85-.64,2.78.68.66,1.53.17,2.28.33.46.1,1.25-.3,1.15.71a12.52,12.52,0,0,1-3.91-.12,7.15,7.15,0,0,1-.05-4.34h0a6,6,0,0,1,3.89,0l0,1.92C481.25,293.62,481.13,293.41,481.27,293Z"/><path class="cls-118" d="M427.8,295.05c-.71-1-.86-2.22.11-2.87.58-.38,2.11-.87,2.42.83a1.34,1.34,0,0,1-1.64.69c-.33,0,.1.56,0,.25,0-.07,0-.11.16-.12.53,0,1.12-.35,1.54.28C429.7,294.93,428.4,294,427.8,295.05Z"/><path class="cls-119" d="M281.07,294.51c-.1-2.74-.1-2.74,2.64-2,.1.75-.46.73-.94.82s-.75.18-1.58.37a4.1,4.1,0,0,0,3.22.25C283.47,295.06,282.18,294.29,281.07,294.51Z"/><path class="cls-96" d="M321.52,295.9a4.86,4.86,0,0,1,0-4.44A5.19,5.19,0,0,1,321.52,295.9Z"/><path class="cls-4" d="M324.9,291.54c0,.21.07.43.1.64a11.2,11.2,0,0,1-.45,4.41c-.58-2.21-.92-3.73,0-5.28,0,0,.14,0,.2,0A.74.74,0,0,1,324.9,291.54Z"/><path class="cls-96" d="M468,291.43a6.23,6.23,0,0,1,0,4.46A4.33,4.33,0,0,1,468,291.43Z"/><path class="cls-4" d="M471.3,291.54c0,.21.07.43.1.64a11.39,11.39,0,0,1-.45,4.41c-.58-2.21-.92-3.73,0-5.28,0,0,.14,0,.19,0A.6.6,0,0,1,471.3,291.54Z"/><path class="cls-120" d="M419.31,296c-3.26.16-3.49-.08-2.56-2.59a9.19,9.19,0,0,1,2.16-.12c1.32.78-.29,1-.28,1.53S419.62,295.28,419.31,296Z"/><path class="cls-102" d="M232.13,297l-.54,0a8.5,8.5,0,0,1,0-7.43.4.4,0,0,1,.58.14c.39.81,0,1.59-.07,2.38a17.07,17.07,0,0,0-.08,1.89,2.21,2.21,0,0,0,.47,1.35,1.36,1.36,0,0,1,.15.59A1.63,1.63,0,0,1,232.13,297Z"/><path class="cls-121" d="M272.91,296c-3.26.16-3.49-.08-2.55-2.59a9.11,9.11,0,0,1,2.15-.12c1.32.78-.29,1-.28,1.53S273.22,295.28,272.91,296Z"/><path class="cls-122" d="M246.46,287c-1.57-.46-2.62-2.06-4.41-2a2.66,2.66,0,0,1-.73-.42.4.4,0,0,1,.13-.48C243.5,284.41,245.48,284.85,246.46,287Z"/><path class="cls-4" d="M460.82,289c1,2.24.17,4.61.46,6.91C460,293.7,460.86,291.33,460.82,289Z"/><path class="cls-101" d="M381.38,285.6l0,.59a5.76,5.76,0,0,1-2.72,3.53.89.89,0,0,1-.67-.18A7.26,7.26,0,0,1,381.38,285.6Z"/><path class="cls-123" d="M232.19,289.54h-.56a7.08,7.08,0,0,1,2.79-3.56.49.49,0,0,1,.63,0A4.48,4.48,0,0,1,232.19,289.54Z"/><path class="cls-124" d="M378,289.54h.58c.5.88,0,1.74,0,2.61s0,1.54-.13,2.3a2.45,2.45,0,0,1-.51,1.05l-.23,0h-.22A8.5,8.5,0,0,1,378,289.54Z"/><path class="cls-108" d="M235.12,286.07l-.7-.08a7.18,7.18,0,0,1,4.56-1.93.51.51,0,0,1,.14.41c0,.15,0,.22-.05.22a1.69,1.69,0,0,1-.76.69C237.25,285.62,236.35,286.64,235.12,286.07Z"/><path class="cls-125" d="M409.84,296c-2.4.3-2.68-.68-1.52-2.53a1.93,1.93,0,0,1,2.09.14c.12.58-.39.72-.7,1C409.26,295.11,410.21,295.5,409.84,296Z"/><path class="cls-126" d="M419.43,293.53l-2.68-.14c.61-.65,1.4-.37,2.12-.41s1-.17.81-.87c1.15.89.63,2,.31,3a.58.58,0,0,1-.46-.37C419.36,294.36,419.61,293.93,419.43,293.53Z"/><path class="cls-126" d="M273,293.53l-2.67-.14c.6-.65,1.4-.37,2.12-.41s1-.17.8-.87c1.15.89.63,2,.32,3a.6.6,0,0,1-.47-.37C273,294.36,273.22,293.92,273,293.53Z"/><path class="cls-125" d="M263.44,296c-2.39.3-2.68-.67-1.52-2.53a1.93,1.93,0,0,1,2.09.14c.13.58-.39.72-.7,1C262.87,295.11,263.81,295.5,263.44,296Z"/><path class="cls-127" d="M410.32,294c-.51-.82-1.34-.32-2-.48.86-.93,2-.31,3-.5a2.87,2.87,0,0,1-.33,2.16.64.64,0,0,1-.48-.31A1.54,1.54,0,0,1,410.32,294Z"/><path class="cls-128" d="M334.87,293l.45.5c-.72,1.36-1.81.39-2.94.85C333,292.76,334.09,293.26,334.87,293Z"/><path class="cls-128" d="M481.27,293l.47.5c-.74,1.29-1.8.59-2.85.55C479.4,292.75,480.5,293.27,481.27,293Z"/><path class="cls-129" d="M263.92,293.94c-.52-.81-1.34-.31-2-.47.85-.94,2-.28,3-.53a2.89,2.89,0,0,1-.32,2.19.68.68,0,0,1-.48-.32A1.54,1.54,0,0,1,263.92,293.94Z"/><path class="cls-128" d="M481.77,296c-.91-1.12-2.6.33-3.43-1,1.25.45,2.71-.41,3.86.62,0,0,0,.18-.05.22A3.39,3.39,0,0,1,481.77,296Z"/><path class="cls-128" d="M335.38,296c-.91-1.12-2.6.33-3.44-1,1.25.45,2.71-.41,3.87.62,0,0,0,.18-.05.22A3.39,3.39,0,0,1,335.38,296Z"/><path class="cls-128" d="M477.81,291.52l.05,4.34A3.6,3.6,0,0,1,477.81,291.52Z"/><path class="cls-128" d="M331.41,291.52l.06,4.34A3.45,3.45,0,0,1,331.41,291.52Z"/><path class="cls-128" d="M481.7,291.55l-3.89,0A3.6,3.6,0,0,1,481.7,291.55Z"/><path class="cls-127" d="M409.84,296c0-.78-2.5-.36-.91-1.9.51.54,1.36.31,1.86.86l.19.17-.21.49Z"/><path class="cls-98" d="M238,302.42l0-.54a3.44,3.44,0,0,1,4,.12c0,.15,0,.31,0,.46A11.45,11.45,0,0,1,238,302.42Z"/><path class="cls-98" d="M384.39,302.41l0-.52a3.41,3.41,0,0,1,4,.11c0,.15,0,.31,0,.46A11.21,11.21,0,0,1,384.39,302.41Z"/><path class="cls-129" d="M263.44,296c-1.44-1-1.44-1-.9-1.9.5.53,1.35.31,1.85.85l.19.18-.21.49Z"/><path class="cls-4" d="M296.34,292.15a1,1,0,0,0,.15.44c-.21,1.11.58,2.39-.54,3.36C296.12,294.69,295.51,293.34,296.34,292.15Z"/><path class="cls-128" d="M335.3,291.56l-3.89,0A3.56,3.56,0,0,1,335.3,291.56Z"/><path class="cls-4" d="M442.74,292.15a.89.89,0,0,0,.15.44c-.21,1.11.57,2.39-.54,3.36C442.52,294.69,441.91,293.34,442.74,292.15Z"/><path class="cls-4" d="M318.43,295.89c.26-1.28-.44-2.68.48-3.88C318.91,293.32,319.73,294.74,318.43,295.89Z"/><path class="cls-91" d="M430.74,291.53l-3.93,0A4,4,0,0,1,430.74,291.53Z"/><path class="cls-130" d="M458.81,296c-.59-.92-1.95,0-2.48-1,.72.06,1.46.09,2.17.2C459,295.23,459.54,295.4,458.81,296Z"/><path class="cls-89" d="M265.83,291.52l-3.41,0A3.11,3.11,0,0,1,265.83,291.52Z"/><path class="cls-126" d="M419.31,296c-.35-.93-1.59-.08-1.95-1a1.94,1.94,0,0,1,2.45,0l.18.15c.12.29.24.59.35.88Z"/><path class="cls-91" d="M430.37,294.11l-2.3-.12c.58-1,1.68-.36,2.26-1l.43.48Z"/><path class="cls-89" d="M267.42,294.92a1,1,0,0,1-1.64.32c-.57-.49-.42-1.16.09-1.72C265.78,294.66,266,295.48,267.42,294.92Z"/><path class="cls-126" d="M272.91,296c-.35-.93-1.59-.08-2-1a1.94,1.94,0,0,1,2.45,0l.19.15c.11.29.23.59.35.88Z"/><path class="cls-110" d="M239,284.48a2.94,2.94,0,0,1,0-.42h2.47c0,.14,0,.28,0,.42C240.63,285.05,239.8,285.3,239,284.48Z"/><path class="cls-131" d="M137.51,91.28,142,88c.52-.21.6,0,.47.47l-5,3.48A.44.44,0,0,1,137.51,91.28Z"/><path class="cls-132" d="M129.53,97.5l-1-.47,3.35-2.1c.54-.17.68.1.64.58C131.56,96.21,130.8,97.24,129.53,97.5Z"/><path class="cls-133" d="M137.51,91.28l0,.71-3,2.08a.51.51,0,0,1-.05-.82A9.52,9.52,0,0,1,137.51,91.28Z"/><path class="cls-134" d="M134.51,93.25l.05.82-2,1.44-.64-.58Z"/><path class="cls-123" d="M142.51,88.51,142,88A3.41,3.41,0,0,1,144.88,87Z"/><path class="cls-135" d="M354.79,485.4a21.73,21.73,0,0,1,0-3.23c.18-1.2-.89-2.81.76-3.54,2-.89,5.91.17,6.78,1.87a10.26,10.26,0,0,1,0,9.56c-.86,1.73-5.26,2.84-7,2-.73-.34-.54-.94-.55-1.48C354.77,488.88,354.79,487.14,354.79,485.4Z"/><path class="cls-136" d="M567,495.51c0-4.49-.08-9,.07-13.47,0-1-1.07-2.64,1-3.07,2.24-.48,4.66.55,5.27,2.26a6.84,6.84,0,0,1,.4,2.19c0,8.15.06,16.3,0,24.44,0,3.23-1.45,4.39-4.67,4.55-1.5.07-2.05-.36-2-1.94C567,505.48,567,500.49,567,495.51Z"/><path class="cls-137" d="M419.51,486.43q.9,6.33,1.78,12.66a4.21,4.21,0,0,1,.1,1c-.09,1,.87,2.19,0,2.79-1.06.76-2.56.26-3.87.25-.88,0-.76-.71-.68-1.28q1-7.68,2.11-15.38Z"/><path class="cls-138" d="M497.24,547.05l-.9.48c0-.46-.22-1.09.35-1.26S497.19,546.68,497.24,547.05Z"/><path class="cls-139" d="M477.15,543.71c.26-.82-.55-2.21,1.17-2.21,1.41,0,1.82,1.06,1.82,2.19s-.46,2.19-1.83,2.21C476.6,545.94,477.42,544.52,477.15,543.71Z"/><path class="cls-139" d="M467.41,547.28c0,1.41,0,2.82,0,4.23,0,.68-.09,1.39-1,1.48s-1.4-.6-1.41-1.37q-.07-4.49,0-9a1.18,1.18,0,0,1,1.27-1.25c.91,0,1.06.69,1.07,1.38,0,1.49,0,3,0,4.48Z"/><path class="cls-140" d="M509,544.8a7,7,0,0,1,.81,3.64c0,.61.27,1.53-.81,1.41s-.66-1-.59-1.6C508.51,547.18,508.75,546.13,509,544.8Z"/><path class="cls-141" d="M407.85,545c.18,1.29.37,2.58.52,3.88.06.53-.09,1-.75,1s-.83-.49-.76-1c.16-1.3.37-2.6.57-3.9Z"/><path class="cls-142" d="M366.47,587.48c-1.88,2.61-4.53,3.25-7.55,2.92-.5-1.17-.08-2.39-.2-3.58-.09-.85.25-1.8-.6-2.46-2.1-1.44-2.16-1.66-.62-3.55a7.49,7.49,0,0,0,1-2,3.48,3.48,0,0,1,2.93-2.36,2,2,0,0,1,2.19.78,1.47,1.47,0,0,1-.37,2c-.92.73-.64,1.29,0,2a1.71,1.71,0,0,1-.19,2.63,2.3,2.3,0,0,0-.75,1c-.33,1-.61,2.26.11,3.09s1.61-.2,2.41-.49a4.42,4.42,0,0,1,.94-.28A1,1,0,0,1,366.47,587.48Z"/><path class="cls-143" d="M366.47,587.48h-.54c-.46-1,.39-1.7.73-2.5a7.42,7.42,0,0,0-3.05-9.32,7.12,7.12,0,0,0-9.11,2.11,7.23,7.23,0,0,0,1.07,9.52c.61.55,1.29,1.3,2.17.9s.44-1.32.5-2c.08-.9-.1-1.85.53-2.63,1.16,2.26.73,4.56.15,6.86-4.39-1-6.91-3.79-7.28-8a8.85,8.85,0,0,1,5.18-8.39,9,9,0,0,1,10.47,2.85C369.75,580.53,369.43,584.69,366.47,587.48Z"/><path class="cls-144" d="M576.09,580.63c-.25,1.22.76,3.48-1.71,3.52s-1.45-2.24-1.7-3.62a6.53,6.53,0,0,1,0-1c0-1.28-.12-2.68,1.77-2.62,1.66.06,1.66,1.32,1.65,2.53Z"/><path class="cls-145" d="M491.81,584c0-1.33,0-2.66,0-4a14.22,14.22,0,0,1,4.56-5.92c2.92-.73,5.82-1.26,8.59.53a8.84,8.84,0,0,1,3.9,9.39c-2.43,6.64-7.46,8.16-14.45,4.38Q493.1,586.17,491.81,584Z"/><path class="cls-146" d="M528.48,584.23c-.75-.14-1.29-.44-1.2-1.27s.71-1,1.41-1,1.08.1,1.08.9S529.23,584.12,528.48,584.23Z"/><path class="cls-147" d="M460.32,584.12c-1.8.19-2.52-.36-1.47-2.13C460.57,581.84,461.66,582.14,460.32,584.12Z"/><path class="cls-148" d="M565.75,579.37a4.89,4.89,0,0,1,0,4.76c-1.82.39-2.08-.65-2-2.11S563.46,579,565.75,579.37Z"/><path class="cls-144" d="M433.33,577c1.84-.27,2.67.51,2.47,2.36-.16,1.54.43,3.17-.51,4.62-2,.53-3.06-.18-2.82-2.33C432.65,580.06,431.81,578.29,433.33,577Z"/><path class="cls-149" d="M419.85,579.45a5.3,5.3,0,0,1,0,4.57c-1.77.6-2.23-.3-2.18-1.86S417.32,578.91,419.85,579.45Z"/><path class="cls-150" d="M404.87,579c0,.64-.07,1.29-.11,1.93-1-.18-3.14,1.48-2.41-1.5C403.15,579,404.13,579.67,404.87,579Z"/><path class="cls-150" d="M552.23,579.27l1.48-.16c.91.52,1.39,1.21.77,2.22a1.33,1.33,0,0,1-1.77.45C551.45,581.2,551.8,580.22,552.23,579.27Z"/><path class="cls-151" d="M558.24,584.05a5.38,5.38,0,0,1,0-4.62c2.54-.53,2.1,1.27,2.16,2.72S560,584.64,558.24,584.05Z"/><path class="cls-147" d="M542.19,580.47c.14-1,.76-1.2,1.6-1.11,1,.12,1.07.84,1,1.64C543.88,581,542.87,581.49,542.19,580.47Z"/><path class="cls-152" d="M413.74,581.9c-.81,0-1.62,0-2-.9.12-.58,0-1.25.61-1.63C414.53,579.26,415.05,580.07,413.74,581.9Z"/><path class="cls-153" d="M552.28,585l1.38-.42c.39.38,1.15.6.94,1.29-.28.93-1.15.73-1.87.74A1.39,1.39,0,0,1,552.28,585Z"/><path class="cls-153" d="M413.19,586.85l-.86-.28c-1-1.83.27-1.85,1.49-1.94C414.86,585.73,414.45,586.41,413.19,586.85Z"/><path class="cls-150" d="M387.35,584.09a1.68,1.68,0,0,1-.4-1.53,2.73,2.73,0,0,1,2.78-.46l.06,1.27A1.8,1.8,0,0,1,387.35,584.09Z"/><path class="cls-154" d="M280.23,194.34c4.36,0,6.23,2.95,4.51,7.08A2.51,2.51,0,0,1,283,203c-4.59,1.19-6,.14-6-4.54v-.75C277,193.93,276.45,194.39,280.23,194.34Z"/><path class="cls-154" d="M376.31,206.88c-5.55,0-5.55,0-3.87-5.32.5-1.59,1-3.17,1.48-4.76a2.37,2.37,0,0,1,4.48,0c.89,2.94,1.77,5.89,2.74,8.81.4,1.2-.25,1.23-1.09,1.22Z"/><path class="cls-2" d="M293.93,261.05V258.9c0-7.28.06-7.31,7.34-6.51,1.91.21,1.36,1.59,1.16,2.35-.42,1.63,1.5,3.88-1.11,4.86a6.7,6.7,0,0,1-2.72,0A5.64,5.64,0,0,0,293.93,261.05Z"/><path class="cls-5" d="M443.46,258.27c0,6,0,6-6.11,6-1.89,0-2.67-.4-2.52-2.45a76,76,0,0,0,0-7.7c0-1.28.33-1.88,1.66-1.71a8.34,8.34,0,0,0,1,0C443.46,252.41,443.46,252.41,443.46,258.27Z"/><path class="cls-5" d="M423.9,258.51c0,5.75,0,5.66-5.81,5.78-2.08,0-3-.35-2.78-2.68a61.88,61.88,0,0,0,0-7.46c0-1.24.26-1.92,1.63-1.73a3.76,3.76,0,0,0,.75,0C423.9,252.38,423.9,252.38,423.9,258.51Z"/><path class="cls-85" d="M241,285.49c6.75,1.85,8.75,7,5.05,13a6.69,6.69,0,0,1-7.6,2.78c-2.95-.73-5.46-2.37-5.95-5.84l0,0c-1.43-3.86.22-7.68,4.11-9.56a9.5,9.5,0,0,1,2.8-.92A2,2,0,0,1,241,285.49Z"/><path class="cls-94" d="M232.47,295.47c1.7,3.6,4.24,5.88,8.52,5.56,2-.16,3.51-1.36,5-2.5l.43.44c-1,1.69-2.93,2.11-4.48,3l-4-.12a13,13,0,0,1-5.84-4.88C231.82,296.39,232.32,296,232.47,295.47Z"/><path class="cls-155" d="M241,285.49h-1.51c-.3-.35-.9-.07-1.13-.55l.65-.45h2.48l.59.48C241.63,285,241.21,285.06,241,285.49Z"/><path class="cls-84" d="M389.79,286.05c5.07,3.71,5.82,7.28,2.62,12.48a6.67,6.67,0,0,1-7.59,2.78c-2.95-.73-5.46-2.37-5.95-5.83l0,0a7.46,7.46,0,0,1,3.74-9.39,11,11,0,0,1,3-1.08,14.42,14.42,0,0,1,1.61,0A5.1,5.1,0,0,1,389.79,286.05Z"/><path class="cls-156" d="M378.87,295.48c1.7,3.59,4.24,5.86,8.51,5.55,2.06-.15,3.52-1.34,5-2.5l.44.45c-1.05,1.67-2.92,2.12-4.49,3l-4-.11c-1.95-1-3.92-2-5.12-4C378.79,297.12,378.21,296.4,378.87,295.48Z"/><path class="cls-105" d="M389.79,286.05l-2.41-.57c0-1,.53-.7,1.06-.52a2.89,2.89,0,0,1,1.88.67Z"/><path class="cls-157" d="M385.86,285.48c-5.5,1.36-7.22,3.84-7,10l-1,0c0-.35,0-.69,0-1a3.62,3.62,0,0,0,0-2.41c.22-.84.43-1.68.65-2.52.94-1.12,1.87-2.24,2.81-3.35,1.11-.36,2-1.32,3.29-1.25C385.23,284.82,385.85,284.5,385.86,285.48Z"/><path class="cls-155" d="M385.86,285.48c-.26-.44-.72-.47-1.15-.54a4,4,0,0,1,3.73,0l-1.06.52Z"/><path class="cls-158" d="M419.81,295l-2.45,0c-.29-1.87,1.85-.3,2.07-1.46A1.36,1.36,0,0,1,419.81,295Z"/><path class="cls-157" d="M238.33,284.93c.42.08.87.11,1.13.55-5.47,1.35-7.2,3.84-7,10-.68,0-1.1-.28-.94-1.06a3.72,3.72,0,0,0,0-2.4c.21-.84.41-1.68.62-2.52l2.92-3.47C236.23,285.82,237.1,284.87,238.33,284.93Z"/><path class="cls-154" d="M231.57,292.06a1.91,1.91,0,0,1,0,2.4Z"/><path class="cls-158" d="M273.41,295,271,295c-.29-1.86,1.85-.3,2.07-1.46A1.35,1.35,0,0,1,273.41,295Z"/><path class="cls-154" d="M378,292.06a1.9,1.9,0,0,1,0,2.41C378,293.66,378,292.86,378,292.06Z"/><path class="cls-154" d="M410.79,295c-.7-.11-1.79.63-1.86-.86l1.39-.15C410.85,294.11,410.87,294.51,410.79,295Z"/><path class="cls-154" d="M264.39,295c-.7-.1-1.79.64-1.85-.85l1.38-.16C264.46,294.1,264.46,294.51,264.39,295Z"/><path class="cls-7" d="M358.77,583.54c0,1.41,0,2.83.13,4.23.14,2-.76,1.8-2.08,1.16a8,8,0,0,1-3.68-10.23,7.8,7.8,0,1,1,14.2,6.45,23.42,23.42,0,0,1-1.41,2.34l-.42.26c-1.26.75-2.44,2.41-4,1.2-1-.72.16-4.62,1.23-5.54.8-.69,1.09-1.39-.24-2-1.91-.85-1.59-1.79.12-2.48a1,1,0,0,0,.78-1.31c-.15-.8-.81-.69-1.37-.72a2.71,2.71,0,0,0-2.56,1.24c-.85,1.22-.11,3.1-2.25,4C356.27,582.5,357.66,583.58,358.77,583.54Z"/><path class="cls-7" d="M492.74,582.05a7.86,7.86,0,0,1,7.59-8,7.86,7.86,0,1,1,0,15.71A7.88,7.88,0,0,1,492.74,582.05Z"/><path class="cls-154" d="M237.39,295.94c-.9-1.73-1.8-3.47-1.51-5.57.88-.29,1.26.59,1.9.83,1.08.4,1.95.84,2.59-.69.57-1.37,1.67-1.09,2.94-.74,1.76.51.79,1.49.6,2.28-1,4.21-3.1,5.6-7.39,4.91C236.14,296,237.34,296.48,237.39,295.94Z"/><path class="cls-159" d="M237.39,295.94l-.87,1c-.32.07-.83,0-.74-.27C236,296,236.79,296.07,237.39,295.94Z"/><path class="cls-160" d="M389.33,288.56c1.2.13,1.95.7,2,2-.47,1.78,0,3.62-.3,5.41a.59.59,0,0,1-.76,0,4.54,4.54,0,0,1-.57-3.09c.07-1.86-.67-2.76-2.6-2.68a4.83,4.83,0,0,1-3.11-.52.64.64,0,0,1-.11-.77C385.65,288.46,387.53,289.1,389.33,288.56Z"/><path class="cls-161" d="M389.84,297.94a12.93,12.93,0,0,1-5.57.27c-1.1-.11-2.1-.43-2.32-1.74.15-.36.36-.66.82-.63a13.28,13.28,0,0,0,6.09,1.13C389.35,297.13,389.89,297.24,389.84,297.94Z"/><path class="cls-119" d="M382.46,295.9l-.51.57a11.84,11.84,0,0,1-.1-6,.56.56,0,0,1,.77.19A6,6,0,0,1,382.46,295.9Z"/><path class="cls-2" d="M389.33,288.56c-1.76.86-3.65.13-5.46.44q-.18-.15-.12-.3c.05-.1.09-.15.13-.15A22.09,22.09,0,0,1,389.33,288.56Z"/><path class="cls-2" d="M390.84,296c.33-1.8-.41-3.69.45-5.45V296A.27.27,0,0,1,390.84,296Z"/><path class="cls-162" d="M390.84,296l.45,0a1.89,1.89,0,0,1-1.45,1.95l-1.17-.53a1.84,1.84,0,0,1,1.76-1.39Z"/><path class="cls-155" d="M383.88,288.55a3.38,3.38,0,0,0,0,.45c0,.14,0,.28,0,.42a1.13,1.13,0,0,1-1.34,1.11l-.66,0A1.89,1.89,0,0,1,383.88,288.55Z"/><path class="cls-163" d="M500.63,585.05c-4.5,0-4.73-.22-4.81-3.1-.05-2.1.51-3.35,2.94-3.15,1.05.09,2.12-.12,3.21,0a3.51,3.51,0,0,1,2.7,5.39C503.6,585.84,501.73,584.6,500.63,585.05Z"/><path class="cls-164" d="M382.51,290.53l1.34-1.11c7.72-.1,6.49-.54,6.58,6.6-.32.79-1.07,1.05-1.76,1.39-2.1-.39-4.59.84-6.21-1.51C382.48,294.11,382.5,292.32,382.51,290.53Z"/><path class="cls-165" d="M499,580.6c1.45.37,2.32.52,2.36,1.32,0,.55-.86.92-1.34.85C498.63,582.55,499.8,581.47,499,580.6Z"/><path class="cls-132" d="M386.64,295.74c-1.87-.09-2.64-1.08-2.57-2.6a2.2,2.2,0,0,1,2.66-2.25,2.14,2.14,0,0,1,2.21,2.44A2.17,2.17,0,0,1,386.64,295.74Z"/><path class="cls-166" d="M386.59,294.93a1.63,1.63,0,0,1-1.64-1.47,1.51,1.51,0,0,1,1.58-1.76,1.48,1.48,0,0,1,1.56,1.55A1.6,1.6,0,0,1,386.59,294.93Z"/></svg>